<svg width="360" height="274" viewBox="0 0 360 274" fill="none" xmlns="http://www.w3.org/2000/svg">
<path d="M360 240.787H0V240.971H360V240.787Z" fill="#EBEBEB"/>
<path d="M323.928 252.62H284.162V252.804H323.928V252.62Z" fill="#EBEBEB"/>
<path d="M237.96 248.767H231.703V248.95H237.96V248.767Z" fill="#EBEBEB"/>
<path d="M281.995 245.796H268.178V245.979H281.995V245.796Z" fill="#EBEBEB"/>
<path d="M68.8683 247.031H37.7715V247.215H68.8683V247.031Z" fill="#EBEBEB"/>
<path d="M187.955 251.782H155.037V251.966H187.955V251.782Z" fill="#EBEBEB"/>
<path d="M168.58 248.671H101.131V248.855H168.58V248.671Z" fill="#EBEBEB"/>
<path d="M174.759 203.786C174.759 204.339 174.652 204.885 174.445 205.395C174.238 205.905 173.935 206.368 173.552 206.758C173.17 207.149 172.716 207.458 172.216 207.668C171.716 207.879 171.181 207.987 170.641 207.986H31.6157C30.5266 207.984 29.4828 207.541 28.7133 206.753C27.9439 205.966 27.5117 204.899 27.5117 203.786V4.16266C27.5212 3.05656 27.9575 1.99894 28.726 1.21954C29.4944 0.440137 30.5328 0.00189481 31.6157 0H170.641C171.731 0 172.777 0.442439 173.548 1.22999C174.319 2.01753 174.752 3.08567 174.752 4.19943M174.572 4.19943C174.576 3.66928 174.477 3.14359 174.281 2.65259C174.085 2.16159 173.796 1.71495 173.431 1.33837C173.066 0.961778 172.631 0.662665 172.152 0.458224C171.673 0.253783 171.16 0.148046 170.641 0.147091H31.6157C30.5743 0.149039 29.5763 0.572965 28.8406 1.32582C28.1049 2.07867 27.6917 3.09894 27.6917 4.16266V203.786C27.6917 204.85 28.1049 205.87 28.8406 206.623C29.5763 207.376 30.5743 207.8 31.6157 207.802H170.641C171.683 207.8 172.681 207.376 173.418 206.624C174.155 205.871 174.57 204.851 174.572 203.786" fill="#EBEBEB"/>
<path d="M326.383 207.986H187.351C186.262 207.984 185.217 207.541 184.446 206.754C183.676 205.967 183.242 204.9 183.24 203.786V4.16266C183.252 3.05589 183.69 1.99828 184.459 1.21908C185.229 0.43988 186.268 0.00187415 187.351 0H326.383C327.465 0.00382766 328.502 0.442925 329.269 1.22212C330.035 2.00132 330.471 3.05783 330.48 4.16266V203.786C330.48 204.898 330.049 205.964 329.281 206.751C328.513 207.538 327.471 207.982 326.383 207.986V207.986ZM187.351 0.147091C186.309 0.149035 185.311 0.572726 184.574 1.32537C183.837 2.07801 183.422 3.09826 183.42 4.16266V203.786C183.422 204.851 183.837 205.871 184.574 206.624C185.311 207.376 186.309 207.8 187.351 207.802H326.383C327.425 207.8 328.424 207.376 329.161 206.624C329.898 205.871 330.313 204.851 330.315 203.786V4.16266C330.313 3.09826 329.898 2.07801 329.161 1.32537C328.424 0.572726 327.425 0.149035 326.383 0.147091H187.351Z" fill="#EBEBEB"/>
<path d="M244.448 51.3344H196.676V107.913H244.448V51.3344Z" fill="#E6E6E6"/>
<path d="M247.78 51.3344H197.395V107.913H247.78V51.3344Z" fill="#F0F0F0"/>
<path d="M243.562 103.61V55.6515H201.622V103.61H243.562Z" fill="white"/>
<path d="M232.79 90.4605H221.903C219.27 90.4567 216.746 89.3859 214.884 87.4832C213.023 85.5804 211.977 83.0012 211.975 80.3113V69.1986C211.975 69.0894 212.017 68.9846 212.093 68.9074C212.168 68.8302 212.271 68.7868 212.378 68.7868H223.264C225.899 68.7887 228.425 69.8586 230.288 71.7616C232.151 73.6645 233.198 76.2449 233.2 78.936V90.056C233.199 90.1101 233.188 90.1635 233.167 90.2131C233.146 90.2627 233.115 90.3076 233.077 90.3451C233.039 90.3827 232.994 90.4122 232.945 90.432C232.895 90.4518 232.843 90.4615 232.79 90.4605V90.4605ZM212.781 69.6105V80.3113C212.785 82.7814 213.747 85.1493 215.457 86.896C217.167 88.6426 219.485 89.6256 221.903 89.6295H232.387V78.936C232.385 76.4653 231.423 74.0963 229.713 72.3492C228.002 70.6021 225.683 69.6198 223.264 69.6178L212.781 69.6105Z" fill="#F0F0F0"/>
<path d="M313.474 72.6039H258.775L263.621 31.6098H308.628L313.474 72.6039Z" fill="#EBEBEB"/>
<path d="M267.833 72.5963H266.955V88.2982H267.833V72.5963Z" fill="#E0E0E0"/>
<path d="M267.393 89.3722C267.974 89.3722 268.444 88.8914 268.444 88.2984C268.444 87.7054 267.974 87.2246 267.393 87.2246C266.812 87.2246 266.342 87.7054 266.342 88.2984C266.342 88.8914 266.812 89.3722 267.393 89.3722Z" fill="#E0E0E0"/>
<path d="M301.472 72.6039H292.069L290.074 31.6098H298.75L301.472 72.6039Z" fill="#F5F5F5"/>
<path d="M288.865 72.5963H283.393V240.78H288.865V72.5963Z" fill="#F0F0F0"/>
<path d="M294.783 240.787H277.467C277.467 239.788 277.855 238.829 278.546 238.122C279.237 237.414 280.175 237.016 281.153 237.014H291.096C292.075 237.016 293.012 237.414 293.704 238.122C294.395 238.829 294.783 239.788 294.783 240.787V240.787Z" fill="#F0F0F0"/>
<path d="M288.865 72.5963H283.393V76.0088H288.865V72.5963Z" fill="#E0E0E0"/>
<path d="M279.777 161.307C279.338 161.307 278.899 161.307 278.452 161.351C275.679 161.548 272.983 162.37 270.557 163.759C268.132 165.147 266.038 167.067 264.426 169.38C262.813 171.694 261.723 174.344 261.232 177.139C260.742 179.934 260.864 182.806 261.59 185.547C263.644 193.732 264.636 202.156 264.542 210.604V235.212C264.541 235.637 264.622 236.057 264.781 236.449C264.939 236.841 265.172 237.198 265.466 237.498C265.759 237.798 266.108 238.035 266.492 238.197C266.876 238.359 267.287 238.442 267.703 238.441H319.543V161.307H279.777Z" fill="#F0F0F0"/>
<path d="M338.401 180.539C338.4 177.799 337.827 175.092 336.719 172.597C335.611 170.102 333.994 167.878 331.977 166.072C329.96 164.267 327.588 162.923 325.022 162.129C322.455 161.336 319.751 161.112 317.093 161.471C314.434 161.831 311.881 162.766 309.605 164.215C307.329 165.664 305.382 167.592 303.894 169.872C302.406 172.151 301.412 174.728 300.979 177.432C300.545 180.135 300.681 182.902 301.378 185.547C303.432 193.731 304.425 202.156 304.33 210.604V235.212C304.33 235.637 304.411 236.057 304.569 236.449C304.728 236.841 304.96 237.197 305.254 237.497C305.548 237.797 305.897 238.035 306.281 238.197C306.664 238.359 307.076 238.442 307.491 238.441H331.64C332.478 238.441 333.282 238.101 333.875 237.495C334.468 236.89 334.801 236.069 334.801 235.212V209.163C334.719 201.238 335.688 193.339 337.681 185.68C338.149 184.007 338.391 182.278 338.401 180.539V180.539Z" fill="#F5F5F5"/>
<path d="M310.004 191.607H224.137V238.441H310.004V191.607Z" fill="#F0F0F0"/>
<path d="M256.204 130.249H192.844C191.018 130.215 189.206 130.578 187.528 131.315C185.85 132.052 184.345 133.145 183.112 134.521C181.88 135.898 180.948 137.527 180.379 139.299C179.81 141.072 179.617 142.948 179.812 144.803L184.636 202.168H276.479L271.655 144.803C271.267 140.867 269.481 137.213 266.634 134.531C263.786 131.849 260.076 130.326 256.204 130.249V130.249Z" fill="#E0E0E0"/>
<path d="M274.839 130.249H210.111C208.372 130.214 206.645 130.558 205.047 131.259C203.448 131.96 202.014 133 200.841 134.311C199.667 135.622 198.78 137.174 198.239 138.862C197.698 140.551 197.516 142.338 197.705 144.104L202.594 202.205H294.48L289.591 144.104C289.224 140.348 287.519 136.861 284.798 134.307C282.078 131.752 278.533 130.307 274.839 130.249V130.249Z" fill="#F5F5F5"/>
<path d="M225.547 187.334H308.549C309.8 187.334 310.999 187.842 311.884 188.745C312.768 189.649 313.265 190.874 313.265 192.151V201.587C313.265 202.865 312.768 204.09 311.884 204.994C310.999 205.897 309.8 206.404 308.549 206.404H225.547C225.166 206.404 224.799 206.25 224.529 205.974C224.259 205.698 224.107 205.324 224.107 204.934V188.754C224.12 188.373 224.278 188.011 224.547 187.747C224.815 187.482 225.174 187.334 225.547 187.334V187.334Z" fill="#E0E0E0"/>
<path d="M177.876 161.307C177.435 161.307 176.996 161.322 176.559 161.351C173.786 161.551 171.091 162.375 168.667 163.764C166.243 165.153 164.15 167.072 162.537 169.385C160.925 171.698 159.833 174.346 159.341 177.14C158.849 179.935 158.968 182.806 159.689 185.547C161.747 193.731 162.739 202.156 162.641 210.604V235.212C162.641 236.069 162.974 236.89 163.567 237.495C164.16 238.101 164.964 238.441 165.802 238.441H217.642V161.307H177.876Z" fill="#F0F0F0"/>
<path d="M236.477 180.539C236.469 177.804 235.889 175.103 234.778 172.615C233.667 170.127 232.05 167.909 230.033 166.11C228.017 164.311 225.648 162.971 223.085 162.181C220.522 161.391 217.824 161.167 215.17 161.526C212.516 161.885 209.967 162.818 207.694 164.262C205.42 165.707 203.475 167.63 201.986 169.903C200.498 172.176 199.501 174.747 199.062 177.445C198.623 180.142 198.752 182.905 199.44 185.547C201.498 193.731 202.49 202.156 202.392 210.604V235.212C202.392 235.637 202.474 236.057 202.633 236.45C202.793 236.842 203.026 237.198 203.32 237.498C203.615 237.798 203.964 238.035 204.348 238.197C204.733 238.359 205.144 238.442 205.56 238.441H229.702C230.117 238.442 230.529 238.359 230.912 238.197C231.296 238.035 231.645 237.797 231.939 237.497C232.233 237.197 232.465 236.841 232.624 236.449C232.782 236.057 232.864 235.637 232.863 235.212V209.163C232.795 201.236 233.778 193.337 235.786 185.68C236.24 184.005 236.473 182.276 236.477 180.539V180.539Z" fill="#F5F5F5"/>
<path d="M309.989 240.787H179.223C178.613 240.787 178.029 240.54 177.598 240.1C177.168 239.66 176.926 239.063 176.926 238.441H312.286C312.286 239.063 312.044 239.66 311.613 240.1C311.182 240.54 310.598 240.787 309.989 240.787Z" fill="#E0E0E0"/>
<path d="M48.9816 25.6157H33.1992V240.787H48.9816V25.6157Z" fill="#E6E6E6"/>
<path d="M48.9741 240.787L187.48 240.787L187.48 25.6158L48.9741 25.6158L48.9741 240.787Z" fill="#F5F5F5"/>
<path d="M184.896 240.787V28.7856L51.5669 28.7856V240.787H184.896Z" fill="#E6E6E6"/>
<path d="M62.7266 240.787L62.7266 28.7856H51.5666L51.5666 240.787H62.7266Z" fill="#E0E0E0"/>
<path d="M186.301 202.992V199.83H51.5672V202.992H186.301Z" fill="#F5F5F5"/>
<path d="M186.301 158.571V155.408H51.5672V158.571H186.301Z" fill="#F5F5F5"/>
<path d="M186.301 114.157V110.987L51.5672 110.987V114.157L186.301 114.157Z" fill="#F5F5F5"/>
<path d="M186.301 69.7281V66.5657L51.5672 66.5657V69.7281L186.301 69.7281Z" fill="#F5F5F5"/>
<path d="M63.4468 66.5731H83.4844V36.3975H63.4468V66.5731Z" fill="#FAFAFA"/>
<path d="M85.615 36.3901H81.7702C81.1658 36.3901 80.6758 36.8906 80.6758 37.508V65.4478C80.6758 66.0652 81.1658 66.5657 81.7702 66.5657H85.615C86.2194 66.5657 86.7094 66.0652 86.7094 65.4478V37.508C86.7094 36.8906 86.2194 36.3901 85.615 36.3901Z" fill="#F0F0F0"/>
<path d="M56.6929 66.5731H76.7305V36.3975H56.6929V66.5731Z" fill="#FAFAFA"/>
<path d="M78.8767 36.3901H75.0319C74.4275 36.3901 73.9375 36.8906 73.9375 37.508V65.4478C73.9375 66.0652 74.4275 66.5657 75.0319 66.5657H78.8767C79.4811 66.5657 79.9711 66.0652 79.9711 65.4478V37.508C79.9711 36.8906 79.4811 36.3901 78.8767 36.3901Z" fill="#E6E6E6"/>
<path d="M51.5664 36.3901H68.8608L67.4856 66.5731H51.5664V36.3901Z" fill="#FAFAFA"/>
<path d="M71.0937 36.3901H67.0545C66.7605 36.4198 66.4885 36.5623 66.2934 36.7889C66.0983 37.0155 65.9946 37.3093 66.0033 37.611L64.7361 65.3522C64.7171 65.496 64.7265 65.6423 64.764 65.7823C64.8014 65.9223 64.8661 66.0532 64.9541 66.1671C65.0421 66.281 65.1517 66.3757 65.2763 66.4454C65.4009 66.5152 65.538 66.5586 65.6793 66.5731H69.7185C70.0112 66.5401 70.2813 66.3966 70.4758 66.1708C70.6703 65.9449 70.7751 65.653 70.7697 65.3522L72.0369 37.611C72.0571 37.467 72.0483 37.3204 72.0113 37.1799C71.9743 37.0395 71.9097 36.9083 71.8215 36.7941C71.7333 36.6799 71.6233 36.5853 71.4982 36.5158C71.3731 36.4464 71.2355 36.4036 71.0937 36.3901V36.3901Z" fill="#F0F0F0"/>
<path d="M156.111 66.5657H171.303V41.0896H156.111V66.5657Z" fill="#FAFAFA"/>
<path d="M172.879 41.0971H170.049C169.568 41.0971 169.178 41.4956 169.178 41.987V65.6833C169.178 66.1748 169.568 66.5732 170.049 66.5732H172.879C173.36 66.5732 173.75 66.1748 173.75 65.6833V41.987C173.75 41.4956 173.36 41.0971 172.879 41.0971Z" fill="#F0F0F0"/>
<path d="M150.992 66.5657H166.184V41.0896H150.992V66.5657Z" fill="#FAFAFA"/>
<path d="M167.767 41.0971H164.938C164.456 41.0971 164.066 41.4956 164.066 41.987V65.6833C164.066 66.1748 164.456 66.5732 164.938 66.5732H167.767C168.248 66.5732 168.638 66.1748 168.638 65.6833V41.987C168.638 41.4956 168.248 41.0971 167.767 41.0971Z" fill="#E6E6E6"/>
<path d="M147.104 41.0971H160.215L159.171 66.5732H147.104V41.0971Z" fill="#FAFAFA"/>
<path d="M161.907 41.0971H158.847C158.429 41.0971 158.076 41.5605 158.047 42.1268L157.09 65.5436C157.09 66.1099 157.385 66.5732 157.81 66.5732H160.877C161.295 66.5732 161.647 66.1099 161.669 65.5436L162.634 42.1268C162.648 41.5605 162.324 41.0971 161.907 41.0971Z" fill="#F0F0F0"/>
<path d="M136.519 66.5657H151.711V41.0896H136.519V66.5657Z" fill="#FAFAFA"/>
<path d="M153.289 41.0971H150.459C149.978 41.0971 149.588 41.4956 149.588 41.987V65.6833C149.588 66.1748 149.978 66.5732 150.459 66.5732H153.289C153.77 66.5732 154.16 66.1748 154.16 65.6833V41.987C154.16 41.4956 153.77 41.0971 153.289 41.0971Z" fill="#F0F0F0"/>
<path d="M131.408 66.5657H146.6V41.0896H131.408V66.5657Z" fill="#FAFAFA"/>
<path d="M148.175 41.0971H145.346C144.865 41.0971 144.475 41.4956 144.475 41.987V65.6833C144.475 66.1748 144.865 66.5732 145.346 66.5732H148.175C148.657 66.5732 149.047 66.1748 149.047 65.6833V41.987C149.047 41.4956 148.657 41.0971 148.175 41.0971Z" fill="#E6E6E6"/>
<path d="M127.52 41.0971H140.624L139.587 66.5732H127.52V41.0971Z" fill="#FAFAFA"/>
<path d="M142.322 41.0971H139.255C138.837 41.0971 138.484 41.5605 138.463 42.1268L137.52 65.5436C137.52 66.1099 137.822 66.5732 138.24 66.5732H141.3C141.717 66.5732 142.07 66.1099 142.099 65.5436L143.056 42.1268C143.056 41.5605 142.74 41.0971 142.322 41.0971Z" fill="#F0F0F0"/>
<path d="M107.899 66.5731H118.49V39.1922H107.899V66.5731Z" fill="#FAFAFA"/>
<path d="M119.447 39.1849H117.77C117.352 39.1849 117.014 39.5307 117.014 39.9572V65.7936C117.014 66.2201 117.352 66.5658 117.77 66.5658H119.447C119.865 66.5658 120.203 66.2201 120.203 65.7936V39.9572C120.203 39.5307 119.865 39.1849 119.447 39.1849Z" fill="#F0F0F0"/>
<path d="M99.0788 66.5731H110.75V36.3975H99.0788V66.5731Z" fill="#FAFAFA"/>
<path d="M111.801 36.3901H109.958C109.497 36.3901 109.123 36.7721 109.123 37.2433V65.7126C109.123 66.1838 109.497 66.5657 109.958 66.5657H111.801C112.263 66.5657 112.637 66.1838 112.637 65.7126V37.2433C112.637 36.7721 112.263 36.3901 111.801 36.3901Z" fill="#F5F5F5"/>
<path d="M96.0918 36.3901H106.165L105.365 66.5731H96.0918V36.3901Z" fill="#FAFAFA"/>
<path d="M107.466 36.3901H105.119C104.802 36.3901 104.522 36.9344 104.507 37.611L103.787 65.3522C103.787 66.0215 104.01 66.5731 104.334 66.5731H106.689C107.006 66.5731 107.279 66.0215 107.301 65.3522L108.021 37.611C107.999 36.9344 107.783 36.3901 107.466 36.3901Z" fill="#F0F0F0"/>
<path d="M116.791 110.994H136.828V80.8187H116.791V110.994Z" fill="#FAFAFA"/>
<path d="M138.967 80.8113H135.122C134.517 80.8113 134.027 81.3118 134.027 81.9292V109.869C134.027 110.486 134.517 110.987 135.122 110.987H138.967C139.571 110.987 140.061 110.486 140.061 109.869V81.9292C140.061 81.3118 139.571 80.8113 138.967 80.8113Z" fill="#F0F0F0"/>
<path d="M110.052 110.994H130.09V80.8187H110.052V110.994Z" fill="#FAFAFA"/>
<path d="M132.22 80.8113H128.376C127.771 80.8113 127.281 81.3118 127.281 81.9292V109.869C127.281 110.486 127.771 110.987 128.376 110.987H132.22C132.825 110.987 133.315 110.486 133.315 109.869V81.9292C133.315 81.3118 132.825 80.8113 132.22 80.8113Z" fill="#E6E6E6"/>
<path d="M104.918 80.8113H122.205L120.83 110.994H104.918V80.8113Z" fill="#FAFAFA"/>
<path d="M124.446 80.8113H120.406C120.112 80.841 119.84 80.9835 119.645 81.2101C119.45 81.4367 119.347 81.7305 119.355 82.0322L118.081 109.773C118.061 109.917 118.069 110.064 118.107 110.204C118.144 110.345 118.208 110.476 118.296 110.59C118.385 110.704 118.494 110.799 118.62 110.869C118.745 110.938 118.882 110.981 119.024 110.994H123.063C123.356 110.961 123.626 110.818 123.821 110.592C124.015 110.366 124.12 110.074 124.114 109.773L125.374 82.0322C125.396 81.8892 125.388 81.7433 125.352 81.6033C125.317 81.4634 125.253 81.3323 125.167 81.2181C125.08 81.1039 124.971 81.009 124.847 80.939C124.723 80.8691 124.587 80.8256 124.446 80.8113V80.8113Z" fill="#F0F0F0"/>
<path d="M147.507 110.987H159.783V85.511H147.507V110.987Z" fill="#FAFAFA"/>
<path d="M160.977 85.5184H158.853C158.42 85.5184 158.068 85.8773 158.068 86.3201V110.193C158.068 110.636 158.42 110.994 158.853 110.994H160.977C161.411 110.994 161.762 110.636 161.762 110.193V86.3201C161.762 85.8773 161.411 85.5184 160.977 85.5184Z" fill="#F0F0F0"/>
<path d="M143.374 110.987H155.65V85.511H143.374V110.987Z" fill="#FAFAFA"/>
<path d="M156.844 85.5184H154.72C154.287 85.5184 153.936 85.8773 153.936 86.3201V110.193C153.936 110.636 154.287 110.994 154.72 110.994H156.844C157.278 110.994 157.629 110.636 157.629 110.193V86.3201C157.629 85.8773 157.278 85.5184 156.844 85.5184Z" fill="#E6E6E6"/>
<path d="M140.227 85.5184H150.825L149.983 110.994H140.227V85.5184Z" fill="#FAFAFA"/>
<path d="M152.194 85.5184H149.717C149.379 85.5184 149.091 85.9818 149.076 86.5481L148.32 109.965C148.32 110.531 148.558 110.994 148.896 110.994H151.373C151.712 110.994 152 110.531 152.014 109.965L152.792 86.5481C152.792 85.9818 152.532 85.5184 152.194 85.5184Z" fill="#F0F0F0"/>
<path d="M167.99 110.994H178.156V89.8942H167.99V110.994Z" fill="#FAFAFA"/>
<path d="M179.142 89.8871H177.378C177.021 89.8871 176.73 90.1834 176.73 90.549V110.325C176.73 110.691 177.021 110.987 177.378 110.987H179.142C179.5 110.987 179.79 110.691 179.79 110.325V90.549C179.79 90.1834 179.5 89.8871 179.142 89.8871Z" fill="#F0F0F0"/>
<path d="M164.564 110.994H174.73V89.8942H164.564V110.994Z" fill="#FAFAFA"/>
<path d="M175.723 89.8871H173.959C173.601 89.8871 173.311 90.1834 173.311 90.549V110.325C173.311 110.691 173.601 110.987 173.959 110.987H175.723C176.08 110.987 176.371 110.691 176.371 110.325V90.549C176.371 90.1834 176.08 89.8871 175.723 89.8871Z" fill="#E6E6E6"/>
<path d="M161.957 89.8871H170.734L170.035 110.995H161.957V89.8871Z" fill="#FAFAFA"/>
<path d="M171.872 89.8871H169.82C169.539 89.8871 169.302 90.2695 169.287 90.7402L168.646 110.141C168.646 110.612 168.841 110.995 169.122 110.995H171.174C171.447 110.995 171.692 110.612 171.706 110.141L172.347 90.7402C172.362 90.2695 172.146 89.8871 171.872 89.8871Z" fill="#F0F0F0"/>
<path d="M84.6713 110.987H99.8633V85.511H84.6713V110.987Z" fill="#FAFAFA"/>
<path d="M101.449 85.5184H98.6193C98.1381 85.5184 97.748 85.9169 97.748 86.4083V110.105C97.748 110.596 98.1381 110.994 98.6193 110.994H101.449C101.93 110.994 102.32 110.596 102.32 110.105V86.4083C102.32 85.9169 101.93 85.5184 101.449 85.5184Z" fill="#F0F0F0"/>
<path d="M79.5678 110.987H94.7598V85.511H79.5678V110.987Z" fill="#FAFAFA"/>
<path d="M96.3297 85.5184H93.5001C93.019 85.5184 92.6289 85.9169 92.6289 86.4083V110.105C92.6289 110.596 93.019 110.994 93.5001 110.994H96.3297C96.8109 110.994 97.2009 110.596 97.2009 110.105V86.4083C97.2009 85.9169 96.8109 85.5184 96.3297 85.5184Z" fill="#E6E6E6"/>
<path d="M75.6719 85.5184H88.7831L87.7391 110.994H75.6719V85.5184Z" fill="#FAFAFA"/>
<path d="M90.4749 85.5184H87.4149C87.1803 85.5581 86.9686 85.6855 86.8208 85.8758C86.6731 86.0661 86.6 86.3057 86.6157 86.5481L85.6797 109.965C85.6797 110.531 85.9749 110.994 86.3997 110.994H89.4597C89.6943 110.955 89.906 110.827 90.0537 110.637C90.2015 110.447 90.2746 110.207 90.2589 109.965L91.2165 86.5481C91.2165 85.9818 90.8925 85.5184 90.4749 85.5184Z" fill="#F0F0F0"/>
<path d="M63.3736 110.994H73.9648V83.6134H63.3736V110.994Z" fill="#FAFAFA"/>
<path d="M74.916 83.6062H73.2384C72.8209 83.6062 72.4824 83.9519 72.4824 84.3784V110.215C72.4824 110.641 72.8209 110.987 73.2384 110.987H74.916C75.3336 110.987 75.672 110.641 75.672 110.215V84.3784C75.672 83.9519 75.3336 83.6062 74.916 83.6062Z" fill="#F0F0F0"/>
<path d="M54.5554 110.994H66.2266V80.8187H54.5554V110.994Z" fill="#FAFAFA"/>
<path d="M67.2702 80.8113H65.427C64.9657 80.8113 64.5918 81.1933 64.5918 81.6644V110.134C64.5918 110.605 64.9657 110.987 65.427 110.987H67.2702C67.7315 110.987 68.1054 110.605 68.1054 110.134V81.6644C68.1054 81.1933 67.7315 80.8113 67.2702 80.8113Z" fill="#F5F5F5"/>
<path d="M51.5664 80.8113H61.6392L60.84 110.994H51.5664V80.8113Z" fill="#FAFAFA"/>
<path d="M62.9423 80.8113H60.5879C60.2639 80.8113 59.9903 81.3555 59.9759 82.0322L59.2559 109.773C59.2559 110.443 59.4863 110.994 59.8103 110.994H62.1359C62.4599 110.994 62.7335 110.443 62.7479 109.773L63.4679 82.0322C63.5039 81.3555 63.2591 80.8113 62.9423 80.8113Z" fill="#F0F0F0"/>
<path d="M63.4468 155.416H83.4844V125.24H63.4468V155.416Z" fill="#FAFAFA"/>
<path d="M85.615 125.233H81.7702C81.1658 125.233 80.6758 125.733 80.6758 126.351V154.29C80.6758 154.908 81.1658 155.408 81.7702 155.408H85.615C86.2194 155.408 86.7094 154.908 86.7094 154.29V126.351C86.7094 125.733 86.2194 125.233 85.615 125.233Z" fill="#F0F0F0"/>
<path d="M56.6929 155.416H76.7305V125.24H56.6929V155.416Z" fill="#FAFAFA"/>
<path d="M78.8767 125.233H75.0319C74.4275 125.233 73.9375 125.733 73.9375 126.351V154.29C73.9375 154.908 74.4275 155.408 75.0319 155.408H78.8767C79.4811 155.408 79.9711 154.908 79.9711 154.29V126.351C79.9711 125.733 79.4811 125.233 78.8767 125.233Z" fill="#E6E6E6"/>
<path d="M51.5664 125.233H68.8608L67.4856 155.416H51.5664V125.233Z" fill="#FAFAFA"/>
<path d="M71.0937 125.233H67.0545C66.7605 125.262 66.4885 125.405 66.2934 125.632C66.0983 125.858 65.9946 126.152 66.0033 126.454L64.7361 154.195C64.7171 154.339 64.7265 154.485 64.764 154.625C64.8014 154.765 64.8661 154.896 64.9541 155.01C65.0421 155.124 65.1517 155.218 65.2763 155.288C65.4009 155.358 65.538 155.401 65.6793 155.416H69.7185C70.0112 155.383 70.2813 155.239 70.4758 155.013C70.6703 154.787 70.7751 154.496 70.7697 154.195L72.0369 126.454C72.0571 126.31 72.0483 126.163 72.0113 126.023C71.9743 125.882 71.9097 125.751 71.8215 125.637C71.7333 125.522 71.6233 125.428 71.4982 125.358C71.3731 125.289 71.2355 125.246 71.0937 125.233V125.233Z" fill="#F0F0F0"/>
<path d="M156.111 155.408H171.303V129.932H156.111V155.408Z" fill="#FAFAFA"/>
<path d="M172.879 129.94H170.049C169.568 129.94 169.178 130.338 169.178 130.83V154.526C169.178 155.017 169.568 155.416 170.049 155.416H172.879C173.36 155.416 173.75 155.017 173.75 154.526V130.83C173.75 130.338 173.36 129.94 172.879 129.94Z" fill="#F0F0F0"/>
<path d="M150.992 155.408H166.184V129.932H150.992V155.408Z" fill="#FAFAFA"/>
<path d="M167.767 129.94H164.938C164.456 129.94 164.066 130.338 164.066 130.83V154.526C164.066 155.017 164.456 155.416 164.938 155.416H167.767C168.248 155.416 168.638 155.017 168.638 154.526V130.83C168.638 130.338 168.248 129.94 167.767 129.94Z" fill="#E6E6E6"/>
<path d="M147.104 129.94H160.215L159.171 155.416H147.104V129.94Z" fill="#FAFAFA"/>
<path d="M161.907 129.94H158.847C158.429 129.94 158.076 130.403 158.047 130.969L157.09 154.386C157.09 154.952 157.385 155.416 157.81 155.416H160.877C161.295 155.416 161.647 154.952 161.669 154.386L162.634 130.969C162.648 130.403 162.324 129.94 161.907 129.94Z" fill="#F0F0F0"/>
<path d="M136.519 155.408H151.711V129.932H136.519V155.408Z" fill="#FAFAFA"/>
<path d="M153.289 129.94H150.459C149.978 129.94 149.588 130.338 149.588 130.83V154.526C149.588 155.017 149.978 155.416 150.459 155.416H153.289C153.77 155.416 154.16 155.017 154.16 154.526V130.83C154.16 130.338 153.77 129.94 153.289 129.94Z" fill="#F0F0F0"/>
<path d="M131.408 155.408H146.6V129.932H131.408V155.408Z" fill="#FAFAFA"/>
<path d="M148.175 129.94H145.346C144.865 129.94 144.475 130.338 144.475 130.83V154.526C144.475 155.017 144.865 155.416 145.346 155.416H148.175C148.657 155.416 149.047 155.017 149.047 154.526V130.83C149.047 130.338 148.657 129.94 148.175 129.94Z" fill="#E6E6E6"/>
<path d="M127.52 129.94H140.624L139.587 155.416H127.52V129.94Z" fill="#FAFAFA"/>
<path d="M142.322 129.94H139.255C138.837 129.94 138.484 130.403 138.463 130.969L137.52 154.386C137.52 154.952 137.822 155.416 138.24 155.416H141.3C141.717 155.416 142.07 154.952 142.099 154.386L143.056 130.969C143.056 130.403 142.74 129.94 142.322 129.94Z" fill="#F0F0F0"/>
<path d="M107.899 155.416H118.49V128.035H107.899V155.416Z" fill="#FAFAFA"/>
<path d="M119.447 128.028H117.77C117.352 128.028 117.014 128.373 117.014 128.8V154.636C117.014 155.063 117.352 155.408 117.77 155.408H119.447C119.865 155.408 120.203 155.063 120.203 154.636V128.8C120.203 128.373 119.865 128.028 119.447 128.028Z" fill="#F0F0F0"/>
<path d="M99.0788 155.416H110.75V125.24H99.0788V155.416Z" fill="#FAFAFA"/>
<path d="M111.801 125.233H109.958C109.497 125.233 109.123 125.615 109.123 126.086V154.555C109.123 155.026 109.497 155.408 109.958 155.408H111.801C112.263 155.408 112.637 155.026 112.637 154.555V126.086C112.637 125.615 112.263 125.233 111.801 125.233Z" fill="#F5F5F5"/>
<path d="M96.0918 125.233H106.165L105.365 155.416H96.0918V125.233Z" fill="#FAFAFA"/>
<path d="M107.466 125.233H105.119C104.802 125.233 104.522 125.777 104.507 126.454L103.787 154.195C103.787 154.864 104.01 155.416 104.334 155.416H106.689C107.006 155.416 107.279 154.864 107.301 154.195L108.021 126.454C107.999 125.762 107.783 125.233 107.466 125.233Z" fill="#F0F0F0"/>
<path d="M59.1702 240.787H72.0078V210.611H59.1702V240.787Z" fill="#FAFAFA"/>
<path d="M73.21 210.604H71.086C70.6049 210.604 70.2148 211.002 70.2148 211.494V239.89C70.2148 240.381 70.6049 240.78 71.086 240.78H73.21C73.6912 240.78 74.0812 240.381 74.0812 239.89V211.494C74.0812 211.002 73.6912 210.604 73.21 210.604Z" fill="#F0F0F0"/>
<path d="M54.8577 240.787H67.6953V210.611H54.8577V240.787Z" fill="#FAFAFA"/>
<path d="M68.8897 210.604H66.7657C66.2846 210.604 65.8945 211.002 65.8945 211.494V239.89C65.8945 240.381 66.2846 240.78 66.7657 240.78H68.8897C69.3709 240.78 69.7609 240.381 69.7609 239.89V211.494C69.7609 211.002 69.3709 210.604 68.8897 210.604Z" fill="#E6E6E6"/>
<path d="M51.5664 210.612H62.64L61.7616 240.787H51.5664V210.612Z" fill="#FAFAFA"/>
<path d="M64.0791 210.604H61.4871C61.1343 210.604 60.8319 211.155 60.8103 211.825L60.0039 239.566C60.0039 240.243 60.2559 240.787 60.6087 240.787H63.1935C63.5463 240.787 63.8487 240.243 63.8703 239.566L64.6767 211.81C64.6983 211.155 64.4247 210.604 64.0791 210.604Z" fill="#F0F0F0"/>
<path d="M166.58 240.787H179.965V215.311H166.58V240.787Z" fill="#FAFAFA"/>
<path d="M181.303 215.311H178.913C178.459 215.311 178.092 215.686 178.092 216.149V239.949C178.092 240.412 178.459 240.787 178.913 240.787H181.303C181.756 240.787 182.124 240.412 182.124 239.949V216.149C182.124 215.686 181.756 215.311 181.303 215.311Z" fill="#F0F0F0"/>
<path d="M162.072 240.787H175.457V215.311H162.072V240.787Z" fill="#FAFAFA"/>
<path d="M176.795 215.311H174.405C173.951 215.311 173.584 215.686 173.584 216.149V239.949C173.584 240.412 173.951 240.787 174.405 240.787H176.795C177.249 240.787 177.616 240.412 177.616 239.949V216.149C177.616 215.686 177.249 215.311 176.795 215.311Z" fill="#E6E6E6"/>
<path d="M158.645 215.311H170.193L169.272 240.787H158.645V215.311Z" fill="#FAFAFA"/>
<path d="M171.691 215.311H168.991C168.624 215.311 168.271 215.774 168.271 216.341L167.443 239.757C167.443 240.324 167.703 240.787 168.07 240.787H170.77C171.137 240.787 171.454 240.324 171.49 239.757L172.332 216.341C172.339 215.774 172.08 215.311 171.691 215.311Z" fill="#F0F0F0"/>
<path d="M149.314 240.787H162.699V215.311H149.314V240.787Z" fill="#FAFAFA"/>
<path d="M164.037 215.311H161.647C161.194 215.311 160.826 215.686 160.826 216.149V239.949C160.826 240.412 161.194 240.787 161.647 240.787H164.037C164.491 240.787 164.858 240.412 164.858 239.949V216.149C164.858 215.686 164.491 215.311 164.037 215.311Z" fill="#F0F0F0"/>
<path d="M144.807 240.787H158.191V215.311H144.807V240.787Z" fill="#FAFAFA"/>
<path d="M159.53 215.311H157.139C156.686 215.311 156.318 215.686 156.318 216.149V239.949C156.318 240.412 156.686 240.787 157.139 240.787H159.53C159.983 240.787 160.35 240.412 160.35 239.949V216.149C160.35 215.686 159.983 215.311 159.53 215.311Z" fill="#E6E6E6"/>
<path d="M141.379 215.311H152.928L152.013 240.787H141.379V215.311Z" fill="#FAFAFA"/>
<path d="M154.426 215.311H151.726C151.359 215.311 151.042 215.774 151.006 216.341L150.178 239.757C150.178 240.324 150.437 240.787 150.804 240.787H153.504C153.871 240.787 154.224 240.324 154.224 239.757L155.067 216.341C155.074 215.774 154.8 215.311 154.426 215.311Z" fill="#F0F0F0"/>
<path d="M135.569 240.787H144.9V213.406H135.569V240.787Z" fill="#FAFAFA"/>
<path d="M144.31 213.406H145.699C145.89 213.406 146.074 213.483 146.209 213.621C146.344 213.759 146.419 213.946 146.419 214.141V240.073C146.419 240.269 146.344 240.456 146.209 240.594C146.074 240.731 145.89 240.809 145.699 240.809H144.31C144.119 240.809 143.936 240.731 143.801 240.594C143.666 240.456 143.59 240.269 143.59 240.073V214.127C143.594 213.934 143.671 213.751 143.806 213.616C143.94 213.481 144.121 213.406 144.31 213.406V213.406Z" fill="#F0F0F0"/>
<path d="M127.8 240.787H138.082V210.611H127.8V240.787Z" fill="#FAFAFA"/>
<path d="M138.954 210.604H137.427C136.994 210.604 136.643 210.963 136.643 211.406V239.978C136.643 240.421 136.994 240.78 137.427 240.78H138.954C139.387 240.78 139.739 240.421 139.739 239.978V211.406C139.739 210.963 139.387 210.604 138.954 210.604Z" fill="#F5F5F5"/>
<path d="M125.164 210.612H134.042L133.336 240.787H125.164V210.612Z" fill="#FAFAFA"/>
<path d="M135.187 210.604H133.114C132.833 210.604 132.588 211.155 132.574 211.825L131.926 239.566C131.926 240.243 132.127 240.787 132.408 240.787H134.482C134.763 240.787 135.007 240.243 135.022 239.566L135.67 211.825C135.684 211.155 135.468 210.604 135.187 210.604Z" fill="#F0F0F0"/>
<path d="M116.791 199.837H136.828V169.661H116.791V199.837Z" fill="#FAFAFA"/>
<path d="M138.967 169.654H135.122C134.517 169.654 134.027 170.155 134.027 170.772V198.712C134.027 199.329 134.517 199.83 135.122 199.83H138.967C139.571 199.83 140.061 199.329 140.061 198.712V170.772C140.061 170.155 139.571 169.654 138.967 169.654Z" fill="#F0F0F0"/>
<path d="M110.052 199.837H130.09V169.661H110.052V199.837Z" fill="#FAFAFA"/>
<path d="M132.22 169.654H128.376C127.771 169.654 127.281 170.155 127.281 170.772V198.712C127.281 199.329 127.771 199.83 128.376 199.83H132.22C132.825 199.83 133.315 199.329 133.315 198.712V170.772C133.315 170.155 132.825 169.654 132.22 169.654Z" fill="#E6E6E6"/>
<path d="M104.918 169.654H122.205L120.83 199.837H104.918V169.654Z" fill="#FAFAFA"/>
<path d="M124.446 169.654H120.406C120.113 169.686 119.842 169.829 119.647 170.055C119.452 170.281 119.348 170.574 119.355 170.875L118.081 198.616C118.061 198.76 118.069 198.907 118.107 199.047C118.144 199.188 118.208 199.319 118.296 199.433C118.385 199.547 118.494 199.642 118.62 199.711C118.745 199.781 118.882 199.824 119.024 199.837H123.063C123.356 199.804 123.626 199.661 123.821 199.435C124.015 199.209 124.12 198.917 124.114 198.616L125.374 170.875C125.395 170.732 125.386 170.587 125.35 170.447C125.314 170.308 125.251 170.177 125.164 170.063C125.077 169.949 124.969 169.854 124.846 169.784C124.722 169.714 124.586 169.67 124.446 169.654V169.654Z" fill="#F0F0F0"/>
<path d="M147.507 199.83H159.783V174.353H147.507V199.83Z" fill="#FAFAFA"/>
<path d="M160.977 174.361H158.853C158.42 174.361 158.068 174.72 158.068 175.163V199.036C158.068 199.478 158.42 199.837 158.853 199.837H160.977C161.411 199.837 161.762 199.478 161.762 199.036V175.163C161.762 174.72 161.411 174.361 160.977 174.361Z" fill="#F0F0F0"/>
<path d="M143.374 199.83H155.65V174.353H143.374V199.83Z" fill="#FAFAFA"/>
<path d="M156.844 174.361H154.72C154.287 174.361 153.936 174.72 153.936 175.163V199.036C153.936 199.478 154.287 199.837 154.72 199.837H156.844C157.278 199.837 157.629 199.478 157.629 199.036V175.163C157.629 174.72 157.278 174.361 156.844 174.361Z" fill="#E6E6E6"/>
<path d="M140.227 174.361H150.825L149.983 199.837H140.227V174.361Z" fill="#FAFAFA"/>
<path d="M152.194 174.361H149.717C149.379 174.361 149.091 174.824 149.076 175.391L148.32 198.808C148.32 199.374 148.558 199.837 148.896 199.837H151.373C151.712 199.837 152 199.374 152.014 198.808L152.792 175.391C152.792 174.824 152.532 174.361 152.194 174.361Z" fill="#F0F0F0"/>
<path d="M167.99 199.837H178.156V178.737H167.99V199.837Z" fill="#FAFAFA"/>
<path d="M179.142 178.73H177.378C177.021 178.73 176.73 179.026 176.73 179.392V199.168C176.73 199.534 177.021 199.83 177.378 199.83H179.142C179.5 199.83 179.79 199.534 179.79 199.168V179.392C179.79 179.026 179.5 178.73 179.142 178.73Z" fill="#F0F0F0"/>
<path d="M164.564 199.837H174.73V178.737H164.564V199.837Z" fill="#FAFAFA"/>
<path d="M175.723 178.73H173.959C173.601 178.73 173.311 179.026 173.311 179.392V199.168C173.311 199.534 173.601 199.83 173.959 199.83H175.723C176.08 199.83 176.371 199.534 176.371 199.168V179.392C176.371 179.026 176.08 178.73 175.723 178.73Z" fill="#E6E6E6"/>
<path d="M161.957 178.73H170.734L170.035 199.837H161.957V178.73Z" fill="#FAFAFA"/>
<path d="M171.872 178.715H169.82C169.539 178.715 169.302 179.097 169.287 179.568L168.646 198.969C168.646 199.44 168.841 199.822 169.122 199.822H171.174C171.447 199.822 171.692 199.44 171.706 198.969L172.347 179.568C172.362 179.112 172.146 178.715 171.872 178.715Z" fill="#F0F0F0"/>
<path d="M84.6713 199.83H99.8633V174.353H84.6713V199.83Z" fill="#FAFAFA"/>
<path d="M101.449 174.361H98.6193C98.1381 174.361 97.748 174.76 97.748 175.251V198.947C97.748 199.439 98.1381 199.837 98.6193 199.837H101.449C101.93 199.837 102.32 199.439 102.32 198.947V175.251C102.32 174.76 101.93 174.361 101.449 174.361Z" fill="#F0F0F0"/>
<path d="M79.5678 199.83H94.7598V174.353H79.5678V199.83Z" fill="#FAFAFA"/>
<path d="M96.3297 174.361H93.5001C93.019 174.361 92.6289 174.76 92.6289 175.251V198.947C92.6289 199.439 93.019 199.837 93.5001 199.837H96.3297C96.8109 199.837 97.2009 199.439 97.2009 198.947V175.251C97.2009 174.76 96.8109 174.361 96.3297 174.361Z" fill="#E6E6E6"/>
<path d="M75.6719 174.361H88.7831L87.7391 199.837H75.6719V174.361Z" fill="#FAFAFA"/>
<path d="M90.4749 174.361H87.4149C87.1803 174.401 86.9686 174.528 86.8208 174.718C86.6731 174.909 86.6 175.148 86.6157 175.391L85.6797 198.808C85.6797 199.374 85.9749 199.837 86.3997 199.837H89.4597C89.6943 199.798 89.906 199.67 90.0537 199.48C90.2015 199.29 90.2746 199.05 90.2589 198.808L91.2165 175.391C91.2165 174.824 90.8925 174.361 90.4749 174.361Z" fill="#F0F0F0"/>
<path d="M63.3736 199.837H73.9648V172.456H63.3736V199.837Z" fill="#FAFAFA"/>
<path d="M74.916 172.449H73.2384C72.8209 172.449 72.4824 172.795 72.4824 173.221V199.058C72.4824 199.484 72.8209 199.83 73.2384 199.83H74.916C75.3336 199.83 75.672 199.484 75.672 199.058V173.221C75.672 172.795 75.3336 172.449 74.916 172.449Z" fill="#F0F0F0"/>
<path d="M54.5554 199.837H66.2266V169.661H54.5554V199.837Z" fill="#FAFAFA"/>
<path d="M67.2702 169.654H65.427C64.9657 169.654 64.5918 170.036 64.5918 170.507V198.977C64.5918 199.448 64.9657 199.83 65.427 199.83H67.2702C67.7315 199.83 68.1054 199.448 68.1054 198.977V170.507C68.1054 170.036 67.7315 169.654 67.2702 169.654Z" fill="#F5F5F5"/>
<path d="M51.5664 169.654H61.6392L60.84 199.837H51.5664V169.654Z" fill="#FAFAFA"/>
<path d="M62.9423 169.654H60.5879C60.2639 169.654 59.9903 170.206 59.9759 170.875L59.2559 198.616C59.2559 199.286 59.4863 199.837 59.8103 199.837H62.1359C62.4599 199.837 62.7335 199.286 62.7479 198.616L63.4679 170.875C63.5039 170.206 63.2591 169.654 62.9423 169.654Z" fill="#F0F0F0"/>
<path d="M111.125 240.787H125.979V208.192H111.125V240.787Z" fill="#FAFAFA"/>
<path d="M127.396 208.192H124.883C124.343 208.192 123.904 208.64 123.904 209.192V239.787C123.904 240.339 124.343 240.787 124.883 240.787H127.396C127.937 240.787 128.376 240.339 128.376 239.787V209.192C128.376 208.64 127.937 208.192 127.396 208.192Z" fill="#F0F0F0"/>
<path d="M106.129 240.787H120.982V208.192H106.129V240.787Z" fill="#FAFAFA"/>
<path d="M122.392 208.192H119.88C119.339 208.192 118.9 208.64 118.9 209.192V239.787C118.9 240.339 119.339 240.787 119.88 240.787H122.392C122.933 240.787 123.372 240.339 123.372 239.787V209.192C123.372 208.64 122.933 208.192 122.392 208.192Z" fill="#E6E6E6"/>
<path d="M102.318 208.192H115.134L114.119 240.787H102.318V208.192Z" fill="#FAFAFA"/>
<path d="M116.798 208.192H113.803C113.392 208.192 113.04 208.78 113.018 209.508L112.082 239.471C112.082 240.206 112.37 240.787 112.802 240.787H115.797C116.208 240.787 116.517 240.199 116.575 239.471L117.511 209.508C117.518 208.78 117.201 208.192 116.798 208.192Z" fill="#F0F0F0"/>
<path d="M88.9769 240.787H101.814V212.413H88.9769V240.787Z" fill="#FAFAFA"/>
<path d="M103.038 212.413H100.871C100.402 212.413 100.021 212.802 100.021 213.281V239.919C100.021 240.399 100.402 240.787 100.871 240.787H103.038C103.508 240.787 103.888 240.399 103.888 239.919V213.281C103.888 212.802 103.508 212.413 103.038 212.413Z" fill="#F0F0F0"/>
<path d="M84.6585 240.787H97.4961V212.413H84.6585V240.787Z" fill="#FAFAFA"/>
<path d="M98.7199 212.413H96.5527C96.0835 212.413 95.7031 212.802 95.7031 213.281V239.919C95.7031 240.399 96.0835 240.787 96.5527 240.787H98.7199C99.1891 240.787 99.5695 240.399 99.5695 239.919V213.281C99.5695 212.802 99.1891 212.413 98.7199 212.413Z" fill="#E6E6E6"/>
<path d="M81.375 212.413H92.4486L91.5702 240.787H81.375V212.413Z" fill="#FAFAFA"/>
<path d="M93.8805 212.413H91.2957C90.9429 212.413 90.6405 212.928 90.6189 213.561L89.8125 239.64C89.8125 240.272 90.0573 240.787 90.4101 240.787H93.0021C93.3549 240.787 93.6573 240.272 93.6717 239.64L94.4853 213.561C94.5069 212.928 94.2333 212.413 93.8805 212.413Z" fill="#F0F0F0"/>
<path d="M179.999 274C257.099 274 319.6 270.273 319.6 265.675C319.6 261.077 257.099 257.349 179.999 257.349C102.9 257.349 40.3984 261.077 40.3984 265.675C40.3984 270.273 102.9 274 179.999 274Z" fill="#F5F5F5"/>
<path d="M165.692 263.748C165.765 263.975 165.783 264.216 165.744 264.451C165.705 264.686 165.61 264.908 165.469 265.098C165.327 265.288 165.142 265.439 164.93 265.54C164.718 265.64 164.486 265.687 164.252 265.675H63.9564C60.8244 265.675 60.8244 244.839 63.9564 244.839H164.281C164.514 244.828 164.745 244.874 164.956 244.974C165.168 245.074 165.352 245.225 165.493 245.414C165.635 245.603 165.73 245.824 165.769 246.058C165.809 246.292 165.792 246.533 165.721 246.759C164.468 250.73 164.468 259.784 165.692 263.748Z" fill="#407BFF"/>
<path opacity="0.8" d="M165.548 247.274H104.687C102.289 247.274 102.289 263.24 104.687 263.24H165.548C164.519 259.232 164.519 251.275 165.548 247.274Z" fill="white"/>
<path opacity="0.2" d="M101.656 263.748C101.728 263.975 101.746 264.216 101.707 264.451C101.668 264.686 101.573 264.908 101.432 265.098C101.29 265.288 101.105 265.439 100.893 265.54C100.682 265.64 100.449 265.687 100.216 265.675H63.9564C60.8244 265.675 60.8244 244.839 63.9564 244.839H100.244C100.477 244.828 100.709 244.874 100.92 244.974C101.131 245.074 101.315 245.225 101.457 245.414C101.598 245.603 101.693 245.824 101.732 246.058C101.772 246.292 101.756 246.533 101.684 246.759C100.432 250.73 100.432 259.784 101.656 263.748Z" fill="black"/>
<path d="M79.4233 244.839H71.1361C68.0041 244.839 68.0041 265.675 71.1361 265.675H79.4233C76.3201 265.675 76.3201 244.839 79.4233 244.839Z" fill="#407BFF"/>
<path d="M85.953 244.839H82.6986C79.5666 244.839 79.5666 265.675 82.6986 265.675H85.953C82.7994 265.675 82.7994 244.839 85.953 244.839Z" fill="#407BFF"/>
<path d="M58.1105 243.111C57.7649 243.964 58.6145 244.84 59.7665 244.84H149.968C153.647 244.84 153.647 226.108 149.968 226.108H59.7593C58.6073 226.108 57.7577 226.975 58.1033 227.836C59.5433 231.403 59.5433 239.544 58.1105 243.111Z" fill="#263238"/>
<path opacity="0.2" d="M58.1105 243.111C57.7649 243.964 58.6145 244.84 59.7665 244.84H103.996C107.675 244.84 107.675 226.108 103.996 226.108H59.7593C58.6073 226.108 57.7577 226.975 58.1033 227.836C59.5433 231.403 59.5433 239.544 58.1105 243.111Z" fill="black"/>
<path opacity="0.8" d="M58.2695 228.292H102.19C105.005 228.292 105.005 242.648 102.19 242.648H58.2695C59.4791 239.022 59.4791 231.896 58.2695 228.292Z" fill="white"/>
<path opacity="0.2" d="M116.775 230.285C116.502 229.454 117.294 228.645 118.388 228.645H143.638C146.317 228.645 146.317 242.295 143.638 242.295H118.388C117.294 242.295 116.502 241.493 116.775 240.662C117.639 237.259 117.639 233.687 116.775 230.285V230.285Z" fill="white"/>
<path d="M299.326 234.749C299.405 234.998 299.428 235.262 299.392 235.521C299.357 235.78 299.263 236.028 299.119 236.244C298.975 236.461 298.785 236.641 298.562 236.771C298.34 236.9 298.091 236.976 297.835 236.992H191.851C188.539 236.992 188.539 212.722 191.851 212.722H297.835C298.087 212.74 298.331 212.815 298.55 212.943C298.769 213.07 298.958 213.247 299.101 213.459C299.244 213.671 299.339 213.913 299.378 214.168C299.416 214.422 299.399 214.682 299.326 214.929C298.037 219.599 298.037 230.138 299.326 234.749Z" fill="#407BFF"/>
<path opacity="0.5" d="M299.326 234.749C299.405 234.998 299.428 235.262 299.392 235.521C299.357 235.78 299.263 236.028 299.119 236.244C298.975 236.461 298.785 236.641 298.562 236.771C298.34 236.9 298.091 236.976 297.835 236.992H191.851C188.539 236.992 188.539 212.722 191.851 212.722H297.835C298.087 212.74 298.331 212.815 298.55 212.943C298.769 213.07 298.958 213.247 299.101 213.459C299.244 213.671 299.339 213.913 299.378 214.168C299.416 214.422 299.399 214.682 299.326 214.929C298.037 219.599 298.037 230.138 299.326 234.749Z" fill="white"/>
<path opacity="0.8" d="M299.181 215.576H234.877C232.343 215.576 232.343 234.153 234.877 234.153H299.181C298.079 229.498 298.079 220.239 299.181 215.576Z" fill="white"/>
<path opacity="0.6" d="M231.674 234.749C231.754 234.998 231.777 235.262 231.741 235.521C231.705 235.78 231.612 236.028 231.468 236.244C231.324 236.461 231.134 236.641 230.911 236.771C230.688 236.9 230.44 236.976 230.184 236.992H191.851C188.539 236.992 188.539 212.722 191.851 212.722H230.184C230.436 212.74 230.68 212.815 230.899 212.943C231.118 213.07 231.306 213.247 231.45 213.459C231.593 213.671 231.687 213.913 231.726 214.168C231.765 214.422 231.747 214.682 231.674 214.929C230.4 219.599 230.4 230.138 231.674 234.749Z" fill="#407BFF"/>
<path opacity="0.5" d="M216.121 214.539C216.197 214.349 216.227 214.143 216.21 213.939C216.193 213.735 216.13 213.538 216.025 213.363C215.92 213.189 215.776 213.042 215.605 212.934C215.434 212.827 215.241 212.762 215.041 212.744H200.425C197.113 212.744 197.113 237.014 200.425 237.014H215.041C215.242 236.996 215.435 236.93 215.605 236.821C215.776 236.713 215.92 236.566 216.025 236.39C216.13 236.215 216.193 236.018 216.21 235.813C216.227 235.609 216.196 235.403 216.121 235.212C214.645 230.704 214.645 219.032 216.121 214.539Z" fill="white"/>
<path d="M291.721 263.005C291.807 263.328 291.816 263.666 291.747 263.993C291.679 264.32 291.535 264.625 291.328 264.884C291.122 265.143 290.857 265.347 290.557 265.481C290.258 265.615 289.931 265.674 289.605 265.653H179.488C174.786 265.653 174.779 236.97 179.488 236.97H289.648C289.974 236.949 290.301 237.008 290.601 237.142C290.9 237.275 291.165 237.48 291.372 237.739C291.578 237.998 291.722 238.303 291.79 238.63C291.859 238.956 291.85 239.295 291.765 239.618C289.885 245.082 289.893 257.548 291.721 263.005Z" fill="#407BFF"/>
<path opacity="0.2" d="M291.721 263.005C291.807 263.328 291.816 263.666 291.747 263.993C291.679 264.32 291.535 264.625 291.328 264.884C291.122 265.143 290.857 265.347 290.557 265.481C290.258 265.615 289.931 265.674 289.605 265.653H179.488C174.786 265.653 174.779 236.97 179.488 236.97H289.648C289.974 236.949 290.301 237.008 290.601 237.142C290.9 237.275 291.165 237.48 291.372 237.739C291.578 237.998 291.722 238.303 291.79 238.63C291.859 238.956 291.85 239.295 291.765 239.618C289.885 245.082 289.893 257.548 291.721 263.005Z" fill="white"/>
<path opacity="0.8" d="M291.505 240.324H224.927C221.327 240.324 221.327 262.299 224.927 262.299H291.512C289.971 256.79 289.971 245.84 291.505 240.324Z" fill="white"/>
<path opacity="0.6" d="M220.377 263.02C220.463 263.342 220.474 263.68 220.406 264.007C220.339 264.334 220.196 264.64 219.99 264.899C219.783 265.158 219.519 265.363 219.22 265.497C218.92 265.63 218.593 265.689 218.267 265.668H179.488C174.786 265.668 174.779 236.985 179.488 236.985H218.267C218.594 236.964 218.92 237.023 219.22 237.157C219.52 237.29 219.784 237.495 219.991 237.754C220.198 238.012 220.341 238.318 220.41 238.645C220.478 238.971 220.469 239.31 220.384 239.633C218.548 245.097 218.548 257.555 220.377 263.02Z" fill="#407BFF"/>
<path opacity="0.5" d="M197.15 237.985C197.21 237.88 197.24 237.76 197.238 237.638C197.236 237.517 197.201 237.398 197.137 237.296C197.073 237.193 196.982 237.11 196.875 237.057C196.769 237.003 196.649 236.981 196.531 236.992H189.943C185.248 236.992 185.248 265.675 189.943 265.675H196.559C196.678 265.686 196.797 265.664 196.904 265.61C197.011 265.556 197.102 265.474 197.166 265.371C197.23 265.269 197.265 265.15 197.267 265.028C197.269 264.907 197.239 264.787 197.179 264.682C194.32 260.247 194.32 242.412 197.15 237.985Z" fill="white"/>
<path opacity="0.5" d="M207.431 237.985C207.49 237.879 207.52 237.759 207.518 237.638C207.515 237.516 207.48 237.397 207.417 237.294C207.353 237.191 207.263 237.108 207.156 237.054C207.05 236.999 206.931 236.975 206.812 236.985H200.224C195.53 236.985 195.53 265.667 200.224 265.667H206.812C206.93 265.677 207.048 265.654 207.154 265.599C207.26 265.545 207.349 265.463 207.412 265.36C207.475 265.258 207.51 265.14 207.512 265.019C207.514 264.898 207.483 264.779 207.424 264.675C204.602 260.247 204.602 242.405 207.431 237.985Z" fill="white"/>
<path d="M290.642 197.484C290.514 195.441 290.044 193.436 289.252 191.556L289.9 191.232C290.723 193.192 291.21 195.282 291.34 197.41L290.642 197.484Z" fill="#407BFF"/>
<path d="M286.127 188.371H268.242V189.107H286.127V188.371Z" fill="#407BFF"/>
<path d="M169.567 210.736C169.2 211.737 170.1 212.744 171.317 212.744H286.128C290.009 212.744 290.009 190.945 286.128 190.945H171.317C170.1 190.945 169.2 191.96 169.567 192.961C171.079 197.101 171.079 206.581 169.567 210.736Z" fill="#407BFF"/>
<path opacity="0.2" d="M169.567 210.736C169.2 211.737 170.1 212.744 171.317 212.744H237.557C241.445 212.744 241.445 190.945 237.557 190.945H171.317C170.1 190.945 169.2 191.96 169.567 192.961C171.079 197.101 171.079 206.581 169.567 210.736Z" fill="black"/>
<path opacity="0.8" d="M169.74 193.498H235.635C238.615 193.498 238.615 210.2 235.635 210.2H169.74C171.015 206.008 171.015 197.69 169.74 193.498Z" fill="white"/>
<path opacity="0.2" d="M251.055 195.807C250.767 194.843 251.602 193.909 252.754 193.909H279.438C282.267 193.909 282.267 209.788 279.438 209.788H252.754C251.602 209.788 250.767 208.854 251.055 207.883C251.998 204.831 251.998 198.866 251.055 195.807Z" fill="white"/>
<path d="M158.832 31.6245C155.585 35.1767 147.658 31.6245 146.448 41.406C145.138 51.9524 150.106 57.0197 143.691 59.7923C133.611 64.0947 126.41 81.2896 140.407 87.7395C154.404 94.1894 184.212 87.4306 180.857 74.2881C177.502 61.1455 178.164 54.0926 182.124 47.9C187.344 39.7145 186.228 29.1975 181.973 25.3879C175.349 19.4307 166.198 23.5345 158.832 31.6245Z" fill="#263238"/>
<path d="M176.156 73.9349C176.101 73.9371 176.048 73.9177 176.006 73.8808C175.965 73.8439 175.938 73.7922 175.933 73.7363C175.928 73.7068 175.929 73.6765 175.935 73.6472C175.942 73.618 175.955 73.5905 175.972 73.5664C175.99 73.5424 176.012 73.5222 176.037 73.5071C176.063 73.4921 176.091 73.4825 176.12 73.4789C178.899 73.0891 180.555 72.3905 181.333 71.2726C182.298 69.8826 181.88 67.8159 181.333 65.1977C180.483 60.9395 179.31 55.1073 183.054 47.7381C187.597 38.8024 185.934 29.0061 181.679 25.7996C181.631 25.7642 181.599 25.7112 181.59 25.652C181.58 25.5928 181.594 25.5322 181.628 25.4833C181.664 25.4344 181.717 25.4016 181.776 25.392C181.835 25.3824 181.896 25.3967 181.945 25.4318C186.38 28.7487 188.094 38.8097 183.45 47.9514C179.785 55.1735 180.937 60.9174 181.772 65.1095C182.319 67.8307 182.751 69.9855 181.671 71.5373C180.822 72.7655 179.072 73.523 176.163 73.9349H176.156Z" fill="#263238"/>
<path d="M139.852 61.1969C139.397 61.1949 138.943 61.1655 138.491 61.1086C138.462 61.105 138.434 61.0954 138.408 61.0805C138.382 61.0655 138.359 61.0455 138.341 61.0215C138.323 60.9976 138.31 60.9702 138.302 60.9409C138.295 60.9117 138.293 60.8812 138.297 60.8512C138.301 60.8212 138.31 60.7922 138.325 60.7659C138.339 60.7395 138.359 60.7165 138.382 60.698C138.406 60.6795 138.433 60.666 138.461 60.6582C138.49 60.6504 138.52 60.6485 138.549 60.6527C140.594 60.9101 142.077 60.6012 143.078 59.7039C144.95 58.0197 144.979 54.4969 145 50.4152C145 45.7965 145.065 40.5675 147.995 37.0005C148.014 36.9773 148.038 36.9582 148.064 36.9442C148.09 36.9301 148.118 36.9215 148.148 36.9188C148.177 36.9161 148.207 36.9193 148.235 36.9282C148.263 36.9372 148.29 36.9518 148.312 36.9711C148.335 36.9904 148.354 37.0141 148.367 37.0408C148.381 37.0675 148.39 37.0968 148.392 37.1268C148.395 37.1569 148.392 37.1871 148.383 37.216C148.374 37.2448 148.36 37.2715 148.341 37.2947C145.511 40.7366 145.461 45.8774 145.461 50.4225C145.461 54.6072 145.411 58.2257 143.387 60.0496C142.39 60.8681 141.129 61.2772 139.852 61.1969V61.1969Z" fill="#263238"/>
<path d="M210.522 190.931C205.719 190.872 203.833 190.563 201.622 190.6C199.412 190.636 198.886 191.034 196.582 190.931C195.027 190.864 195.02 188.974 195.618 187.68C196.086 186.665 196.662 185.643 197.194 184.378L203.286 184.834C204.106 187.202 208.182 188.217 211.753 189.055C213.171 189.401 212.444 190.953 210.522 190.931Z" fill="#407BFF"/>
<path d="M178.761 100.58C178.761 100.58 194.874 114.738 211.161 129.756C218.044 136.117 203.608 184.62 203.608 184.62C203.305 185.657 197.934 184.179 197.128 183.363C197.128 183.363 196.307 145.715 199.799 138.133C163.684 128.807 158.039 110.693 158.039 110.693L160.631 99.4551L178.761 100.58Z" fill="#263238"/>
<path opacity="0.2" d="M160.424 115.157C162.445 118.043 164.841 120.636 167.545 122.864C171.145 118.562 170.137 111.612 170.137 111.612L160.424 115.157Z" fill="black"/>
<path d="M204.862 182.525C204.761 183.26 204.588 184.562 204.494 185.525C204.48 185.681 204.408 185.826 204.293 185.93C204.178 186.033 204.029 186.089 203.875 186.084C201.466 185.891 199.079 185.468 196.747 184.819C196.635 184.787 196.536 184.719 196.464 184.625C196.393 184.531 196.353 184.416 196.351 184.297L196.301 181.613C196.3 181.525 196.318 181.439 196.352 181.359C196.386 181.279 196.437 181.207 196.5 181.148C196.563 181.089 196.637 181.045 196.718 181.017C196.799 180.989 196.885 180.979 196.97 180.987L204.401 181.907C204.471 181.915 204.54 181.937 204.602 181.973C204.663 182.009 204.717 182.057 204.761 182.115C204.804 182.173 204.835 182.239 204.852 182.309C204.87 182.38 204.873 182.453 204.862 182.525V182.525Z" fill="#263238"/>
<path opacity="0.3" d="M204.862 182.525C204.761 183.26 204.588 184.562 204.494 185.525C204.48 185.681 204.408 185.826 204.293 185.93C204.178 186.033 204.029 186.089 203.875 186.084C201.466 185.891 199.079 185.468 196.747 184.819C196.635 184.787 196.536 184.719 196.464 184.625C196.393 184.531 196.353 184.416 196.351 184.297L196.301 181.613C196.3 181.525 196.318 181.439 196.352 181.359C196.386 181.279 196.437 181.207 196.5 181.148C196.563 181.089 196.637 181.045 196.718 181.017C196.799 180.989 196.885 180.979 196.97 180.987L204.401 181.907C204.471 181.915 204.54 181.937 204.602 181.973C204.663 182.009 204.717 182.057 204.761 182.115C204.804 182.173 204.835 182.239 204.852 182.309C204.87 182.38 204.873 182.453 204.862 182.525V182.525Z" fill="white"/>
<path d="M140.018 226.107C135.137 226.107 133.538 224.232 130.81 223.717C128.506 223.276 127.894 223.482 126.036 223.151C124.481 222.871 124.358 221.783 125.316 220.172C125.941 219.059 126.471 217.892 126.9 216.686L134.302 217.186C135.072 219.209 136.85 223.32 139.565 223.805C142.121 224.313 141.962 226.107 140.018 226.107Z" fill="#407BFF"/>
<path d="M177.646 100.536C177.646 100.536 160.618 131.462 153.764 150.591C146.564 170.683 135.102 203.543 134.274 217.186C133.05 217.782 129.032 217.554 126.872 216.686C126.872 216.686 124.87 169.617 138.73 150.76C142.035 110.376 147.522 103.919 153.354 98.999L177.646 100.536Z" fill="#263238"/>
<path d="M135.166 214.399C135.078 215.33 135.054 216.266 135.094 217.201C135.104 217.364 135.051 217.524 134.946 217.646C134.84 217.769 134.692 217.844 134.533 217.856C131.775 218.113 127.93 217.208 126.714 216.899C126.601 216.871 126.5 216.804 126.427 216.711C126.354 216.619 126.313 216.504 126.31 216.385L126.217 213.752C126.216 213.665 126.232 213.579 126.265 213.5C126.298 213.42 126.347 213.348 126.408 213.288C126.47 213.229 126.543 213.183 126.623 213.154C126.703 213.125 126.788 213.113 126.872 213.119L134.677 213.803C134.748 213.809 134.817 213.829 134.88 213.862C134.943 213.895 134.999 213.94 135.044 213.996C135.09 214.051 135.124 214.116 135.145 214.185C135.166 214.254 135.173 214.327 135.166 214.399V214.399Z" fill="#263238"/>
<path opacity="0.3" d="M135.166 214.399C135.078 215.33 135.054 216.266 135.094 217.201C135.104 217.364 135.051 217.524 134.946 217.646C134.84 217.769 134.692 217.844 134.533 217.856C131.775 218.113 127.93 217.208 126.714 216.899C126.601 216.871 126.5 216.804 126.427 216.711C126.354 216.619 126.313 216.504 126.31 216.385L126.217 213.752C126.216 213.665 126.232 213.579 126.265 213.5C126.298 213.42 126.347 213.348 126.408 213.288C126.47 213.229 126.543 213.183 126.623 213.154C126.703 213.125 126.788 213.113 126.872 213.119L134.677 213.803C134.748 213.809 134.817 213.829 134.88 213.862C134.943 213.895 134.999 213.94 135.044 213.996C135.09 214.051 135.124 214.116 135.145 214.185C135.166 214.254 135.173 214.327 135.166 214.399V214.399Z" fill="white"/>
<path d="M182.16 70.1988C182.88 71.5888 183.658 73.1406 184.45 74.6115C185.242 76.0824 186.041 77.5533 186.848 78.9874C188.475 81.8778 190.174 84.7093 191.996 87.3789L191.016 86.4891C191.739 87.0079 192.535 87.4097 193.378 87.6805C194.397 88.0296 195.442 88.2952 196.503 88.4748C197.612 88.6807 198.764 88.8204 199.937 88.9308C201.111 89.0411 202.342 89.1073 203.465 89.1808H203.616C204.084 89.2082 204.528 89.4012 204.871 89.7264C205.215 90.0517 205.437 90.4891 205.499 90.9633C205.561 91.4375 205.46 91.9191 205.212 92.3253C204.964 92.7314 204.586 93.0368 204.142 93.189C202.855 93.6263 201.539 93.9655 200.204 94.2039C198.861 94.4477 197.505 94.5976 196.143 94.6526C194.698 94.7092 193.251 94.6206 191.823 94.3878C190.211 94.1397 188.653 93.6124 187.215 92.8287C186.916 92.6619 186.65 92.4399 186.43 92.1741L186.236 91.9387C185.091 90.5414 183.975 89.1146 182.952 87.6511C181.93 86.1875 180.929 84.7093 180 83.2384C179.072 81.7674 178.172 80.2009 177.322 78.6491C176.472 77.0973 175.666 75.5602 174.896 73.8613C174.491 72.896 174.463 71.8092 174.817 70.8233C175.171 69.8374 175.88 69.0268 176.799 68.5572C177.719 68.0875 178.779 67.9944 179.763 68.2968C180.748 68.5992 181.582 69.2743 182.096 70.1841L182.16 70.1988Z" fill="#FFB573"/>
<path d="M178.185 64.2639C182.887 65.8451 183.65 67.9999 186.227 75.9575C184.514 80.7306 177.587 83.1503 177.587 83.1503C177.587 83.1503 169.408 69.5444 178.185 64.2639Z" fill="#407BFF"/>
<path d="M184.621 74.6189C184.355 77.2518 183.693 80.3922 182.303 86.5626C181.223 91.7991 181.209 102.007 179.481 102.544C176.161 104.221 167.853 103.574 153.352 98.9991C153.813 91.3504 154.684 86.1581 152.193 68.6103C152.036 67.6903 152.082 66.7462 152.327 65.8467C152.573 64.9472 153.011 64.115 153.611 63.4105C154.211 62.706 154.958 62.1471 155.796 61.7743C156.634 61.4016 157.543 61.2244 158.457 61.2557C159.508 61.2557 160.617 61.344 161.747 61.447C165.735 61.692 169.701 62.2303 173.613 63.0576C174.887 63.3518 176.205 63.6974 177.457 64.0505C179.664 64.6941 181.584 66.0991 182.89 68.026C184.196 69.953 184.808 72.2829 184.621 74.6189V74.6189Z" fill="#407BFF"/>
<path d="M133.863 105.037L135.303 103.691C135.571 103.441 135.776 103.129 135.902 102.781C136.027 102.433 136.068 102.059 136.023 101.691L135.627 98.1827C135.551 97.4933 135.316 96.8321 134.94 96.254C134.565 95.676 134.06 95.1976 133.467 94.8585L132.747 94.4393C130.177 96.5059 128.888 100.669 128.888 100.669L128.391 101.816C128.282 102.048 128.219 102.3 128.206 102.557C128.193 102.814 128.23 103.071 128.315 103.313C128.4 103.555 128.531 103.778 128.701 103.968C128.871 104.158 129.077 104.311 129.305 104.419L131.516 105.449C131.904 105.618 132.332 105.669 132.749 105.596C133.165 105.523 133.552 105.329 133.863 105.037Z" fill="#FFB573"/>
<path d="M209.441 87.3716L207.598 86.6362C207.257 86.5045 206.89 86.4585 206.528 86.502C206.165 86.5455 205.819 86.6773 205.517 86.8862L202.637 88.8573C202.072 89.2456 201.606 89.767 201.279 90.3774C200.952 90.9879 200.773 91.6697 200.758 92.3654V93.2405C203.731 94.6232 207.958 93.873 207.958 93.873L209.182 93.7995C209.434 93.791 209.681 93.7316 209.911 93.6247C210.14 93.5179 210.346 93.3657 210.518 93.177C210.689 92.9882 210.822 92.7667 210.909 92.5252C210.996 92.2836 211.036 92.0268 211.025 91.7696L210.91 89.2912C210.877 88.8593 210.72 88.4469 210.458 88.1055C210.197 87.7642 209.843 87.5089 209.441 87.3716Z" fill="#FFB573"/>
<path d="M156.485 70.9785L155.563 71.4124L154.555 71.8831C153.886 72.2141 153.223 72.5597 152.561 72.9128C151.229 73.6482 149.933 74.3837 148.659 75.1559C147.384 75.9281 146.153 76.7886 144.958 77.6638C143.763 78.539 142.654 79.4951 141.574 80.4732L142.049 79.8554C141.698 80.3829 141.39 80.9388 141.127 81.5176C140.811 82.1868 140.515 82.9149 140.227 83.6577C139.651 85.1286 139.09 86.7025 138.571 88.2837C138.053 89.8649 137.527 91.4682 137.016 93.0715L135.461 97.9034C135.31 98.378 134.996 98.7806 134.576 99.0363C134.157 99.2919 133.661 99.3833 133.18 99.2934C132.7 99.2035 132.267 98.9385 131.964 98.5475C131.66 98.1566 131.506 97.6664 131.53 97.168C131.609 95.3955 131.767 93.6746 131.962 91.9389C132.156 90.2032 132.401 88.4749 132.682 86.7393C132.963 85.0036 133.33 83.2606 133.798 81.4955C134.028 80.6129 134.28 79.7304 134.597 78.8037C134.932 77.7837 135.361 76.7987 135.879 75.8619C135.969 75.7085 136.073 75.5633 136.188 75.428L136.361 75.2441C137.547 73.9085 138.817 72.6531 140.163 71.486C141.489 70.3346 142.878 69.2616 144.324 68.2721C145.751 67.2841 147.229 66.3757 148.752 65.5509C149.515 65.139 150.286 64.7493 151.071 64.3668C151.467 64.183 151.855 63.9917 152.266 63.8152C152.676 63.6387 153.051 63.4843 153.562 63.2857C154.542 62.8853 155.638 62.8945 156.611 63.3114C157.585 63.7283 158.36 64.5195 158.768 65.5143C159.176 66.5092 159.185 67.6279 158.793 68.6295C158.401 69.631 157.639 70.435 156.672 70.8682L156.485 70.9785Z" fill="#FFB573"/>
<path d="M163.441 63.1681C159.913 60.5866 157.767 60.3071 149.228 64.0947C148.213 69.5812 151.539 77.6344 151.539 77.6344C151.539 77.6344 162.901 71.589 163.441 63.1681Z" fill="#407BFF"/>
<path d="M164.361 47.885C164.886 51.9227 165.225 59.2404 162.402 61.5056C162.402 61.5056 166.089 61.4394 173.138 67.3304C175.78 64.3886 174.268 63.1163 174.268 63.1163C170.07 61.4909 170.366 58.2476 171.28 55.2837L164.361 47.885Z" fill="#FFB573"/>
<path d="M171.647 66.1392C169.077 66.1392 167.774 69.9562 167.774 69.9562C167.774 69.9562 161.596 64.9257 160.754 61.3882C161.574 61.0504 162.377 60.6699 163.159 60.2483C163.159 60.2483 170.366 64.4477 171.647 66.1392Z" fill="white"/>
<path d="M174.11 66.0434C174.11 66.0434 176.054 66.7789 176.695 69.7207C178.012 64.1165 175.442 63.234 175.442 63.234C174.798 62.7407 173.997 62.51 173.195 62.5868C173.721 62.9615 174.101 63.5133 174.268 64.1453C174.435 64.7773 174.379 65.4493 174.11 66.0434V66.0434Z" fill="white"/>
<path opacity="0.2" d="M167.184 50.9006L171.273 55.3133C171.051 56.0031 170.889 56.712 170.791 57.4314C169.178 56.9681 167.047 54.8279 166.975 53.0187C166.916 52.3056 166.987 51.5875 167.184 50.9006V50.9006Z" fill="black"/>
<path d="M159.927 42.0089C161.367 48.2897 161.893 50.9741 165.586 53.8424C171.138 58.1521 178.345 55.3574 178.734 48.856C179.079 42.9724 176.617 33.7057 170.094 31.9406C168.711 31.5161 167.243 31.4763 165.841 31.8253C164.438 32.1743 163.153 32.8994 162.116 33.9257C161.08 34.952 160.331 36.2423 159.946 37.6633C159.561 39.0843 159.555 40.5845 159.927 42.0089V42.0089Z" fill="#FFB573"/>
<path d="M161.129 46.5247C163.389 45.3922 165.787 39.8248 162.569 37.1919C165.225 37.6993 168.271 36.9712 171.086 34.7502C174.758 31.8084 180.165 39.1114 178.387 34.8237C175.824 28.6459 168.098 27.1015 161.107 32.2349C154.116 37.3684 154.613 43.6124 161.129 46.5247Z" fill="#263238"/>
<path d="M159.213 45.267C159.189 45.2645 159.165 45.254 159.147 45.2371C159.129 45.2202 159.116 45.1977 159.112 45.173C159.107 45.1483 159.11 45.1227 159.12 45.0999C159.131 45.0771 159.148 45.0584 159.17 45.0464C160.97 44.2521 168.609 42.59 168.933 42.5238C168.948 42.5194 168.963 42.5183 168.978 42.5205C168.993 42.5227 169.008 42.5281 169.021 42.5365C169.034 42.5448 169.045 42.5559 169.053 42.5689C169.062 42.5819 169.067 42.5966 169.07 42.6121C169.074 42.6412 169.068 42.6709 169.052 42.6954C169.036 42.7199 169.011 42.7374 168.983 42.7444C168.904 42.7444 161.063 44.4728 159.256 45.2597L159.213 45.267Z" fill="white"/>
<path opacity="0.2" d="M168.48 42.656C167.709 42.3093 166.834 42.2882 166.047 42.5972C166.847 42.778 167.673 42.798 168.48 42.656V42.656Z" fill="black"/>
<path opacity="0.2" d="M168.416 43.2151C168.041 43.1344 167.654 43.138 167.281 43.2256C166.908 43.3132 166.558 43.4828 166.256 43.7226C167.003 43.7104 167.739 43.5375 168.416 43.2151V43.2151Z" fill="black"/>
<path d="M169.82 42.568C169.92 43.1048 170.273 43.502 170.612 43.4578C170.95 43.4137 171.137 42.9504 171.036 42.4135C170.936 41.8766 170.576 41.4868 170.244 41.5236C169.913 41.5604 169.719 42.0384 169.82 42.568Z" fill="#263238"/>
<path d="M176.141 41.8693C176.241 42.3988 176.601 42.7959 176.933 42.7592C177.264 42.7224 177.458 42.2443 177.357 41.7148C177.257 41.1853 176.904 40.7808 176.565 40.8249C176.227 40.869 176.04 41.3324 176.141 41.8693Z" fill="#263238"/>
<path d="M176.4 40.8764L177.567 40.3468C177.567 40.3468 177.12 41.4279 176.4 40.8764Z" fill="#263238"/>
<path d="M174.961 42.8915C175.584 44.0914 176.353 45.2058 177.251 46.2084C177.005 46.419 176.717 46.5711 176.407 46.6538C176.097 46.7365 175.773 46.7476 175.458 46.6865L174.961 42.8915Z" fill="#ED893E"/>
<path d="M172.691 49.062C172.981 49.0872 173.273 49.0872 173.563 49.062C173.582 49.0594 173.601 49.0527 173.618 49.0422C173.635 49.0317 173.65 49.0178 173.662 49.0012C173.673 48.9846 173.681 48.9657 173.685 48.9458C173.689 48.9259 173.689 48.9054 173.685 48.8855C173.678 48.8433 173.655 48.8053 173.622 48.7794C173.589 48.7535 173.547 48.7414 173.505 48.7458C172.853 48.8264 172.192 48.7581 171.57 48.5457C170.947 48.3332 170.378 47.9821 169.905 47.5176C169.891 47.5029 169.874 47.4912 169.856 47.4833C169.837 47.4753 169.817 47.4712 169.797 47.4712C169.777 47.4712 169.757 47.4753 169.738 47.4833C169.72 47.4912 169.703 47.5029 169.689 47.5176C169.662 47.5475 169.646 47.587 169.646 47.6279C169.646 47.6688 169.662 47.7083 169.689 47.7382C170.499 48.5379 171.566 49.0085 172.691 49.062V49.062Z" fill="#263238"/>
<path d="M158.466 47.6352C158.813 48.1409 159.259 48.5674 159.776 48.8877C160.292 49.208 160.869 49.4151 161.468 49.4959C162.966 49.6209 163.29 47.8411 162.526 46.2599C161.842 44.8405 160.237 43.0533 158.926 43.6711C157.616 44.2889 157.494 46.3334 158.466 47.6352Z" fill="#FFB573"/>
<path d="M167.796 38.5156C167.836 38.5156 167.876 38.5064 167.912 38.4885C167.948 38.4707 167.98 38.4447 168.005 38.4126C168.236 38.1097 168.538 37.8699 168.882 37.7147C169.226 37.5594 169.603 37.4935 169.978 37.5227C170.017 37.5289 170.056 37.5269 170.095 37.5167C170.133 37.5066 170.168 37.4885 170.2 37.4637C170.231 37.4389 170.256 37.4078 170.275 37.3724C170.294 37.337 170.305 37.2981 170.309 37.258C170.312 37.1735 170.286 37.0907 170.234 37.0246C170.182 36.9584 170.109 36.9134 170.028 36.8976C169.554 36.8547 169.078 36.9324 168.64 37.1236C168.203 37.3148 167.819 37.6136 167.523 37.9934C167.488 38.0436 167.467 38.1027 167.464 38.1641C167.46 38.2255 167.473 38.2867 167.501 38.3409C167.53 38.3952 167.572 38.4402 167.624 38.4711C167.676 38.5019 167.736 38.5173 167.796 38.5156V38.5156Z" fill="#263238"/>
<path d="M177.307 38.2435C177.345 38.2478 177.384 38.2442 177.421 38.2329C177.458 38.2215 177.493 38.2026 177.523 38.1773C177.552 38.1485 177.574 38.1142 177.59 38.0763C177.606 38.0384 177.614 37.9977 177.614 37.9566C177.614 37.9155 177.606 37.8749 177.59 37.837C177.574 37.7991 177.552 37.7648 177.523 37.736C177.212 37.3369 176.815 37.0165 176.363 36.7996C175.911 36.5828 175.416 36.4754 174.916 36.4857C174.877 36.489 174.838 36.5009 174.803 36.5207C174.768 36.5405 174.738 36.5676 174.714 36.6003C174.69 36.633 174.673 36.6706 174.665 36.7104C174.656 36.7503 174.656 36.7915 174.664 36.8314C174.677 36.9145 174.719 36.99 174.783 37.043C174.847 37.096 174.928 37.1228 175.01 37.1182C175.406 37.1139 175.797 37.2025 176.154 37.3772C176.511 37.5519 176.824 37.808 177.069 38.1258C177.098 38.1621 177.134 38.1915 177.175 38.2118C177.216 38.2321 177.261 38.243 177.307 38.2435V38.2435Z" fill="#263238"/>
<path d="M171.771 45.8995C170.251 45.8995 168.934 44.2521 168.79 42.1414C168.703 41.1473 168.927 40.1505 169.431 39.2952C169.629 38.9326 169.91 38.6239 170.25 38.3949C170.589 38.1659 170.977 38.0232 171.382 37.9787C172.973 37.8684 174.37 39.5526 174.521 41.7369C174.672 43.9212 173.499 45.7819 171.922 45.8922L171.771 45.8995ZM171.533 38.2435H171.403C171.033 38.2869 170.678 38.4195 170.368 38.6305C170.057 38.8415 169.8 39.1247 169.618 39.457C169.14 40.2706 168.928 41.2186 169.013 42.1635C169.15 44.2154 170.453 45.7966 171.893 45.701C173.333 45.6054 174.42 43.8403 174.283 41.7884C174.147 39.7365 172.937 38.2435 171.533 38.2435Z" fill="white"/>
<path d="M178.503 45.5025C176.984 45.5025 175.659 43.8624 175.515 41.7517C175.431 40.7578 175.656 39.7621 176.156 38.9055C176.356 38.5428 176.639 38.2341 176.979 38.0051C177.32 37.7762 177.709 37.6335 178.114 37.589C179.691 37.4787 181.102 39.1629 181.246 41.3398C181.33 42.3337 181.106 43.3294 180.606 44.186C180.406 44.5495 180.124 44.8588 179.783 45.0879C179.443 45.317 179.053 45.4592 178.647 45.5025H178.503ZM178.266 37.817H178.129C177.758 37.8604 177.403 37.993 177.093 38.204C176.782 38.415 176.526 38.6983 176.343 39.0305C175.872 39.8467 175.66 40.7926 175.738 41.737C175.875 43.7227 177.099 45.2745 178.503 45.2745H178.633C179.004 45.2329 179.36 45.1009 179.67 44.8898C179.981 44.6786 180.238 44.3944 180.418 44.061C180.893 43.2486 181.104 42.3042 181.023 41.3619C180.886 39.3688 179.662 37.817 178.266 37.817V37.817Z" fill="white"/>
<path d="M175.679 42.0531C175.66 42.052 175.641 42.0461 175.625 42.0358C175.609 42.0255 175.595 42.0112 175.586 41.9942C175.312 41.553 174.513 42.031 174.506 42.031C174.493 42.039 174.48 42.0444 174.465 42.0469C174.451 42.0493 174.437 42.0488 174.422 42.0454C174.408 42.042 174.395 42.0357 174.383 42.0269C174.372 42.0181 174.362 42.007 174.354 41.9942C174.336 41.9728 174.326 41.9454 174.326 41.917C174.326 41.8886 174.336 41.8612 174.354 41.8398C174.398 41.8398 175.348 41.2367 175.737 41.8398C175.746 41.8519 175.752 41.8659 175.755 41.8807C175.758 41.8956 175.758 41.9109 175.754 41.9257C175.751 41.9404 175.744 41.9542 175.735 41.9661C175.726 41.9779 175.714 41.9875 175.701 41.9942C175.701 42.005 175.7 42.0158 175.696 42.0259C175.692 42.036 175.687 42.0452 175.679 42.0531V42.0531Z" fill="white"/>
<path d="M170.1 41.5749L171.259 41.0528C171.259 41.0528 170.82 42.1339 170.1 41.5749Z" fill="#263238"/>
</svg>
