<svg width="355" height="264" viewBox="0 0 355 264" fill="none" xmlns="http://www.w3.org/2000/svg">
<path d="M318.662 243.293H295.203V243.47H318.662V243.293Z" fill="#EBEBEB"/>
<path d="M234.602 245.219H228.447V245.396H234.602V245.219Z" fill="#EBEBEB"/>
<path d="M294.497 236.72H280.904V236.897H294.497V236.72Z" fill="#EBEBEB"/>
<path d="M67.7495 237.91H37.1582V238.087H67.7495V237.91Z" fill="#EBEBEB"/>
<path d="M78.5421 237.91H74.0586V238.087H78.5421V237.91Z" fill="#EBEBEB"/>
<path d="M159.472 240.899H93.1191V241.076H159.472V240.899Z" fill="#EBEBEB"/>
<path d="M167.867 200.306H31.1017C30.0303 200.304 29.0035 199.878 28.2465 199.119C27.4896 198.361 27.0645 197.333 27.0645 196.262V4.00896C27.0738 2.9437 27.503 1.92514 28.259 1.17451C29.0149 0.423886 30.0364 0.00182485 31.1017 0H167.867C168.939 0 169.968 0.426103 170.727 1.18457C171.485 1.94304 171.911 2.97174 171.911 4.04437V196.262C171.911 197.335 171.485 198.363 170.727 199.122C169.968 199.88 168.939 200.306 167.867 200.306V200.306ZM31.1017 0.14166C30.0773 0.143536 29.0955 0.551809 28.3717 1.27687C27.648 2.00192 27.2415 2.98451 27.2415 4.00896V196.262C27.2415 197.286 27.648 198.269 28.3717 198.994C29.0955 199.719 30.0773 200.127 31.1017 200.129H167.867C168.892 200.127 169.874 199.719 170.599 198.994C171.324 198.27 171.732 197.287 171.734 196.262V4.00896C171.732 2.98386 171.324 2.00129 170.599 1.27643C169.874 0.551579 168.892 0.143532 167.867 0.14166H31.1017Z" fill="#EBEBEB"/>
<path d="M321.078 200.306H184.306C183.234 200.304 182.206 199.878 181.448 199.12C180.69 198.362 180.264 197.334 180.262 196.262V4.00896C180.273 2.94305 180.704 1.9245 181.461 1.17407C182.218 0.423638 183.24 0.00180495 184.306 0H321.078C322.142 0.00368633 323.162 0.426571 323.916 1.177C324.671 1.92742 325.099 2.94492 325.108 4.00896V196.262C325.108 197.332 324.684 198.359 323.929 199.117C323.173 199.875 322.148 200.303 321.078 200.306V200.306ZM184.306 0.14166C183.281 0.143532 182.298 0.551579 181.574 1.27643C180.849 2.00129 180.441 2.98386 180.439 4.00896V196.262C180.441 197.287 180.849 198.27 181.574 198.994C182.298 199.719 183.281 200.127 184.306 200.129H321.078C322.103 200.127 323.086 199.719 323.811 198.994C324.536 198.27 324.944 197.287 324.945 196.262V4.00896C324.944 2.98386 324.536 2.00129 323.811 1.27643C323.086 0.551579 322.103 0.143532 321.078 0.14166H184.306Z" fill="#EBEBEB"/>
<path d="M354.148 231.896H0V232.073H354.148V231.896Z" fill="#EBEBEB"/>
<path d="M304.085 10.2774H301.67V51.3019H304.085V10.2774Z" fill="#E0E0E0"/>
<path d="M302.875 10.2774H264.287V51.3019H302.875V10.2774Z" fill="#F0F0F0"/>
<path d="M299.878 13.5072H267.75V48.065H299.878V13.5072Z" fill="white"/>
<path d="M292.115 34.7703C292.109 35.2943 292.147 35.8179 292.229 36.3356C292.307 36.7394 292.399 37.1502 292.498 37.5539C292.606 37.8621 292.67 38.184 292.689 38.5101C292.693 38.8044 292.627 39.0954 292.498 39.3599C292.369 39.6243 292.18 39.8548 291.945 40.0329C291.446 40.445 290.815 40.6637 290.168 40.6492C289.719 40.6887 289.267 40.6285 288.845 40.473C288.423 40.3175 288.04 40.0705 287.724 39.7496C287.193 39.0827 286.899 38.2578 286.888 37.4052C285.942 38.4774 284.769 39.3245 283.453 39.8842C282.116 40.4107 280.689 40.6706 279.253 40.6492C277.638 40.6716 276.07 40.1079 274.84 39.0626C274.233 38.5687 273.748 37.9421 273.421 37.2311C273.094 36.5202 272.935 35.7437 272.956 34.9615C272.927 33.9841 273.128 33.0135 273.544 32.1284C273.919 31.3724 274.486 30.7277 275.187 30.2585C275.943 29.7546 276.775 29.3767 277.652 29.1393C278.67 28.8526 279.71 28.6536 280.761 28.5444L284.161 28.1619C284.792 28.1135 285.404 27.9247 285.953 27.6094C286.175 27.4307 286.347 27.1982 286.454 26.9342C286.56 26.6702 286.598 26.3833 286.562 26.1008C286.577 25.7503 286.492 25.4027 286.316 25.0991C286.141 24.7954 285.882 24.5483 285.571 24.3867C284.798 23.977 283.93 23.779 283.056 23.813C282.199 23.7711 281.345 23.9414 280.57 24.3088C279.901 24.6846 279.284 25.1466 278.736 25.6829C278.417 26.0199 278.06 26.3193 277.673 26.5753C277.351 26.7711 276.98 26.8717 276.604 26.8657C275.976 26.8866 275.366 26.6602 274.904 26.2353C274.69 26.0464 274.52 25.814 274.404 25.5538C274.288 25.2936 274.229 25.0116 274.231 24.7267C274.252 24.1019 274.459 23.4976 274.826 22.9913C275.284 22.3291 275.875 21.7694 276.561 21.3481C277.438 20.8036 278.394 20.3975 279.394 20.144C280.61 19.8275 281.863 19.675 283.12 19.6907C285.92 19.6907 288.128 20.1629 289.743 21.1073C290.51 21.5264 291.145 22.1533 291.573 22.9161C292.002 23.6789 292.207 24.5469 292.165 25.4208L292.115 34.7703ZM286.541 30.7613C286.258 31.0046 285.928 31.1856 285.571 31.2926C285.106 31.4357 284.633 31.5516 284.154 31.6396V31.6396L282.128 31.9442C281.168 32.0327 280.241 32.3378 279.416 32.8367C279.126 33.0474 278.894 33.328 278.741 33.6525C278.589 33.977 278.521 34.3347 278.544 34.6924C278.545 35.0096 278.622 35.322 278.767 35.604C278.912 35.886 279.122 36.1294 279.38 36.3144C280.033 36.7861 280.828 37.0209 281.633 36.9802C282.922 37.0355 284.186 36.606 285.174 35.7761C285.595 35.4334 285.935 35.0014 286.169 34.5115C286.403 34.0216 286.525 33.4858 286.527 32.9429L286.541 30.7613Z" fill="#EBEBEB"/>
<path d="M316.22 123.98H297.797V143.593H316.22V123.98Z" fill="#E6E6E6"/>
<path d="M297.795 123.98H293.078V143.593H297.795V123.98Z" fill="#F5F5F5"/>
<path d="M321.049 120.956H307.209V143.593H321.049V120.956Z" fill="#E6E6E6"/>
<path d="M307.217 120.956H303.215V143.593H307.217V120.956Z" fill="#F0F0F0"/>
<path d="M324.733 123.98H311.289V143.593H324.733V123.98Z" fill="#F0F0F0"/>
<path d="M311.282 123.98H308.619V143.593H311.282V123.98Z" fill="#F5F5F5"/>
<path d="M268.452 138.09H265.031V145.413H268.452V138.09Z" fill="#E0E0E0"/>
<path d="M266.163 139.655C263.794 139.661 261.448 139.198 259.259 138.291C257.071 137.384 255.084 136.051 253.414 134.371L253.917 133.875C257.164 137.122 261.568 138.946 266.16 138.946C270.752 138.946 275.156 137.122 278.403 133.875C281.65 130.628 283.474 126.224 283.474 121.632C283.474 117.04 281.65 112.636 278.403 109.389L278.899 108.894C281.416 111.415 283.129 114.627 283.823 118.122C284.516 121.617 284.158 125.239 282.793 128.531C281.429 131.822 279.12 134.636 276.158 136.616C273.195 138.596 269.712 139.653 266.149 139.655H266.163Z" fill="#E0E0E0"/>
<path d="M324.945 143.593H252.691V231.67H324.945V143.593Z" fill="#EBEBEB"/>
<path d="M318.663 153.41H258.465V231.889H318.663V153.41Z" fill="#F5F5F5"/>
<path d="M266.992 134.746C273.708 134.746 279.153 129.302 279.153 122.585C279.153 115.868 273.708 110.423 266.992 110.423C260.275 110.423 254.83 115.868 254.83 122.585C254.83 129.302 260.275 134.746 266.992 134.746Z" fill="#EBEBEB"/>
<path d="M258.223 131.396C255.956 129.051 254.701 125.908 254.729 122.646C254.757 119.384 256.065 116.264 258.371 113.957C260.678 111.651 263.799 110.343 267.06 110.315C270.322 110.287 273.465 111.542 275.81 113.809L275.421 114.199C274.315 113.095 273.003 112.22 271.559 111.623C270.116 111.027 268.569 110.72 267.007 110.722C265.445 110.723 263.898 111.032 262.455 111.631C261.013 112.23 259.702 113.107 258.599 114.213C257.495 115.318 256.62 116.63 256.023 118.074C255.427 119.518 255.12 121.065 255.122 122.627C255.123 124.189 255.432 125.735 256.031 127.178C256.63 128.621 257.507 129.931 258.613 131.035L258.223 131.396Z" fill="white"/>
<path d="M258.225 131.396L258.614 131.014C259.718 132.117 261.029 132.993 262.471 133.59C263.914 134.187 265.46 134.494 267.021 134.494C268.582 134.493 270.127 134.185 271.57 133.588C273.012 132.99 274.322 132.114 275.426 131.01C276.529 129.906 277.405 128.595 278.002 127.153C278.599 125.711 278.906 124.165 278.906 122.604C278.905 121.043 278.597 119.497 278 118.055C277.402 116.613 276.526 115.302 275.422 114.199L275.812 113.809C276.999 114.957 277.946 116.329 278.597 117.846C279.248 119.364 279.591 120.995 279.605 122.646C279.619 124.297 279.304 125.935 278.679 127.463C278.053 128.991 277.13 130.379 275.962 131.547C274.795 132.714 273.407 133.638 271.878 134.263C270.35 134.889 268.713 135.203 267.062 135.189C265.411 135.175 263.779 134.833 262.262 134.181C260.745 133.53 259.372 132.583 258.225 131.396V131.396Z" fill="white"/>
<path d="M271.511 127.097L271.121 126.714C273.954 123.881 276.341 118.604 275.371 114.064L275.902 113.951C276.943 118.682 274.464 124.143 271.511 127.097Z" fill="white"/>
<path d="M258.621 131.212L258.741 130.674C263.275 131.665 268.537 129.3 271.385 126.424L271.774 126.806C268.821 129.795 263.353 132.246 258.621 131.212Z" fill="white"/>
<path d="M262.913 118.498L262.523 118.116C265.477 115.155 270.945 112.704 275.676 113.738L275.556 114.277C271.023 113.285 265.76 115.651 262.913 118.498Z" fill="white"/>
<path d="M258.415 131.035C257.381 126.303 259.831 120.843 262.785 117.882L263.175 118.271C260.341 121.105 257.954 126.381 258.925 130.922L258.415 131.035Z" fill="white"/>
<path d="M275.427 113.811L258.229 131.009L258.614 131.395L275.813 114.196L275.427 113.811Z" fill="white"/>
<path d="M264.513 110.555L264.127 110.941L278.686 125.5L279.072 125.115L264.513 110.555Z" fill="white"/>
<path d="M258.466 113.962L258.08 114.348L275.269 131.537L275.655 131.151L258.466 113.962Z" fill="white"/>
<path d="M255.249 120.196L254.863 120.582L269.037 134.756L269.423 134.37L255.249 120.196Z" fill="white"/>
<path d="M248.562 135.596H27.2402V141.553H248.562V135.596Z" fill="#E0E0E0"/>
<path d="M241.493 10.2278H239.984V135.547H241.493V10.2278Z" fill="#E0E0E0"/>
<path d="M41.6477 15.7242H40.4082V128.485H41.6477V15.7242Z" fill="#E0E0E0"/>
<path d="M239.965 10.2774H34.3105V135.596H239.965V10.2774Z" fill="#F0F0F0"/>
<path d="M233.263 15.7242H40.4082V128.485H233.263V15.7242Z" fill="#E0E0E0"/>
<path d="M41.5488 82.1057V135.228H72.2464L41.5488 82.1057ZM48.2351 108.894L59.0508 127.642H48.2351V108.894Z" fill="#FAFAFA"/>
<path opacity="0.1" d="M161.392 128.202H138.599V128.315C138.283 128.437 138.012 128.652 137.821 128.931C137.63 129.211 137.528 129.542 137.529 129.88V134.874C137.528 135.212 137.63 135.543 137.821 135.823C138.012 136.102 138.283 136.317 138.599 136.439V136.553H161.824C162.155 136.553 162.472 136.421 162.705 136.187C162.939 135.954 163.07 135.637 163.07 135.306V129.88C163.07 129.435 162.894 129.008 162.579 128.693C162.264 128.379 161.837 128.202 161.392 128.202V128.202Z" fill="black"/>
<path d="M161.832 131.651V134.576C161.832 134.741 161.8 134.903 161.737 135.055C161.674 135.207 161.581 135.345 161.465 135.46C161.348 135.576 161.21 135.668 161.058 135.73C160.906 135.792 160.743 135.824 160.579 135.823H137.354V131.644L161.832 131.651Z" fill="#F0F0F0"/>
<path d="M137.354 131.651V127.493H160.154C160.599 127.493 161.026 127.67 161.341 127.985C161.655 128.3 161.832 128.727 161.832 129.172V131.665L137.354 131.651Z" fill="#E0E0E0"/>
<path d="M144.641 131.651V134.151C144.639 134.596 144.462 135.022 144.147 135.336C143.833 135.651 143.407 135.828 142.962 135.83H137.962C137.741 135.83 137.523 135.787 137.319 135.702C137.116 135.618 136.931 135.494 136.775 135.338C136.619 135.183 136.495 134.997 136.411 134.794C136.327 134.59 136.283 134.372 136.283 134.151V131.651H144.641Z" fill="#FAFAFA"/>
<path d="M136.283 131.651V129.158C136.283 128.937 136.327 128.719 136.411 128.516C136.495 128.312 136.619 128.127 136.775 127.971C136.931 127.815 137.116 127.691 137.319 127.607C137.523 127.523 137.741 127.479 137.962 127.479H142.962C143.407 127.481 143.833 127.659 144.147 127.973C144.462 128.287 144.639 128.713 144.641 129.158V131.651H136.283Z" fill="#EBEBEB"/>
<path d="M161.824 132.331H144.789V132.685H161.824V132.331Z" fill="#E6E6E6"/>
<path d="M177.074 263.493C252.92 263.493 314.406 259.904 314.406 255.476C314.406 251.047 252.92 247.458 177.074 247.458C101.228 247.458 39.7422 251.047 39.7422 255.476C39.7422 259.904 101.228 263.493 177.074 263.493Z" fill="#F5F5F5"/>
<path d="M147.136 38.1134C147.136 38.6447 147.044 39.1759 146.98 39.7C146.916 40.2242 146.831 40.7483 146.753 41.2866C146.676 41.8249 146.605 42.3491 146.52 42.8803C146.435 43.4115 146.357 43.9498 146.307 44.481C146.315 44.6084 146.315 44.7361 146.307 44.8635C146.3 44.9909 146.3 45.1186 146.307 45.246C146.314 45.3687 146.314 45.4916 146.307 45.6143C146.307 45.7418 146.307 45.8622 146.272 45.9826C146.257 46.1394 146.223 46.2939 146.173 46.443C146.123 46.5917 146.061 46.7362 145.989 46.8751C145.922 47.0289 145.82 47.1648 145.691 47.2717C145.568 47.3805 145.419 47.4561 145.259 47.4913C145.035 47.5329 144.804 47.5006 144.6 47.3992C144.403 47.3037 144.24 47.1506 144.133 46.9601C144.076 46.8233 144.033 46.6808 144.005 46.5351C143.983 46.385 143.971 46.2335 143.97 46.0818C143.959 45.9261 143.959 45.77 143.97 45.6143C143.97 45.4585 143.97 45.3097 143.97 45.1539C144.012 44.6864 144.069 44.219 144.126 43.7373C144.182 43.2557 144.246 42.7882 144.317 42.3207C144.388 41.8533 144.452 41.3504 144.522 40.8616C144.593 40.3729 144.657 39.8913 144.699 39.4025C144.699 39.268 144.699 39.1334 144.699 38.9917C144.699 38.8501 144.699 38.7013 144.699 38.5668C144.714 38.4302 144.714 38.2925 144.699 38.1559C144.686 38.0234 144.65 37.8941 144.593 37.7735C144.501 37.6885 144.409 37.6035 144.317 37.5043C144.222 37.4145 144.134 37.3174 144.055 37.2139C143.982 37.1097 143.924 36.9951 143.885 36.8739C143.856 36.7433 143.856 36.6079 143.885 36.4773C143.902 36.2897 143.947 36.1058 144.019 35.9319C144.096 35.7563 144.196 35.5919 144.317 35.4432C144.436 35.2923 144.579 35.1629 144.742 35.0607C144.905 34.9572 145.089 34.8897 145.28 34.8624C145.375 34.8868 145.468 34.92 145.556 34.9615L145.819 35.0961C146.036 35.2235 146.233 35.3808 146.406 35.5636C146.576 35.7502 146.721 35.9572 146.838 36.1798C146.956 36.4042 147.047 36.6421 147.108 36.8881C147.165 37.1436 147.192 37.4053 147.186 37.6672C147.182 37.7404 147.182 37.8136 147.186 37.8868L147.136 38.1134Z" fill="#407BFF"/>
<path d="M155.564 41.2441C155.545 41.3706 155.505 41.4929 155.444 41.6053C155.38 41.7195 155.302 41.8244 155.21 41.917C155.115 42.0037 155.008 42.0754 154.891 42.1295C154.773 42.1842 154.646 42.2154 154.516 42.2216C154.313 42.2216 154.107 42.2216 153.899 42.2216C153.694 42.2216 153.489 42.2216 153.276 42.2216C153.276 42.3986 153.234 42.5757 153.227 42.7599C153.218 42.9426 153.199 43.1247 153.17 43.3053C153.145 43.4545 153.084 43.5955 152.993 43.7161C152.901 43.836 152.794 43.9432 152.674 44.0348C152.552 44.1362 152.416 44.2196 152.27 44.2827C152.127 44.3444 151.973 44.3758 151.817 44.3748C151.613 44.3414 151.43 44.2295 151.307 44.0631C151.185 43.9003 151.102 43.7111 151.066 43.5107C151.017 43.2945 150.994 43.0735 150.995 42.8519C150.995 42.6253 150.995 42.4128 150.995 42.2216H150.464H149.919C149.771 42.2172 149.626 42.1732 149.501 42.0941C149.374 42.0226 149.265 41.9233 149.182 41.8037C149.095 41.6861 149.023 41.5575 148.97 41.4212C148.914 41.2794 148.897 41.1255 148.92 40.975C148.986 40.759 149.12 40.5702 149.303 40.4366C149.485 40.3072 149.689 40.2113 149.905 40.1533C150.136 40.0923 150.374 40.0544 150.613 40.04L151.272 39.9763V39.8063C151.296 39.5944 151.332 39.384 151.378 39.1759C151.427 38.9548 151.503 38.7407 151.605 38.5384C151.707 38.3515 151.844 38.1857 152.008 38.0497C152.189 37.9122 152.412 37.8443 152.639 37.8584C152.761 37.8582 152.882 37.8848 152.993 37.9364C153.101 37.9875 153.199 38.057 153.283 38.1418C153.367 38.2224 153.435 38.3186 153.482 38.4251C153.527 38.5378 153.551 38.6578 153.552 38.7792C153.527 38.9883 153.515 39.1989 153.517 39.4096C153.518 39.6207 153.501 39.8316 153.467 40.04H153.666C153.88 40.0269 154.096 40.0269 154.31 40.04C154.528 40.0654 154.74 40.1227 154.941 40.21C155.125 40.291 155.288 40.4148 155.415 40.5712C155.489 40.665 155.541 40.7742 155.566 40.8907C155.592 41.0072 155.591 41.128 155.564 41.2441V41.2441Z" fill="#407BFF"/>
<path d="M160.968 38.1134C160.968 38.6447 160.876 39.1759 160.812 39.7C160.748 40.2242 160.671 40.7483 160.586 41.2866C160.501 41.8249 160.437 42.3491 160.352 42.8803C160.267 43.4115 160.189 43.9498 160.139 44.481C160.147 44.6084 160.147 44.7361 160.139 44.8635C160.132 44.9909 160.132 45.1186 160.139 45.246C160.146 45.3687 160.146 45.4916 160.139 45.6143C160.139 45.7418 160.139 45.8622 160.104 45.9826C160.089 46.1394 160.055 46.2939 160.005 46.443C159.955 46.5917 159.893 46.7362 159.821 46.8751C159.754 47.0289 159.652 47.1648 159.523 47.2717C159.4 47.3805 159.251 47.4561 159.091 47.4913C158.867 47.5329 158.636 47.5006 158.432 47.3992C158.237 47.3016 158.074 47.1489 157.965 46.9601C157.908 46.8233 157.865 46.6808 157.837 46.5351C157.815 46.385 157.803 46.2335 157.802 46.0818C157.791 45.9261 157.791 45.77 157.802 45.6143C157.802 45.4585 157.802 45.3097 157.802 45.1539C157.844 44.6864 157.901 44.219 157.958 43.7373C158.014 43.2557 158.078 42.7882 158.149 42.3207C158.22 41.8533 158.284 41.3504 158.354 40.8616C158.425 40.3729 158.489 39.8913 158.531 39.4025C158.531 39.268 158.531 39.1334 158.531 38.9917C158.531 38.8501 158.531 38.7013 158.531 38.5668C158.546 38.4302 158.546 38.2925 158.531 38.1559C158.518 38.0234 158.482 37.8941 158.425 37.7735C158.333 37.6885 158.241 37.6035 158.149 37.5043C158.054 37.4145 157.967 37.3174 157.887 37.2139C157.814 37.1097 157.756 36.9951 157.717 36.8739C157.688 36.7433 157.688 36.6079 157.717 36.4773C157.734 36.2897 157.779 36.1058 157.852 35.9319C157.928 35.7563 158.028 35.5919 158.149 35.4432C158.268 35.2923 158.411 35.1629 158.574 35.0607C158.737 34.9572 158.921 34.8897 159.112 34.8624C159.207 34.8868 159.3 34.92 159.389 34.9615L159.651 35.0961C159.868 35.2235 160.066 35.3808 160.238 35.5636C160.408 35.7502 160.553 35.9572 160.671 36.1798C160.792 36.4028 160.882 36.641 160.94 36.8881C160.997 37.1436 161.024 37.4053 161.018 37.6672C161.014 37.7404 161.014 37.8136 161.018 37.8868L160.968 38.1134Z" fill="#407BFF"/>
<path d="M169.922 42.6961C169.88 42.8418 169.807 42.977 169.71 43.0928C169.617 43.2124 169.507 43.3175 169.384 43.4044C169.262 43.4909 169.128 43.56 168.987 43.6098C168.847 43.6652 168.698 43.694 168.548 43.6948C167.84 43.7444 167.181 43.7657 166.501 43.7586C165.821 43.7515 165.155 43.7586 164.482 43.6807C164.331 43.6709 164.184 43.6299 164.05 43.5603C163.921 43.4983 163.804 43.4144 163.703 43.3124C163.602 43.2055 163.519 43.0837 163.455 42.9511C163.394 42.8126 163.36 42.6634 163.356 42.512C163.345 42.3999 163.372 42.2873 163.434 42.1933C163.489 42.1021 163.564 42.0247 163.654 41.9666C163.743 41.8999 163.841 41.8451 163.944 41.8037L164.249 41.6974C164.482 41.6348 164.718 41.5852 164.957 41.5487C165.191 41.5153 165.428 41.4987 165.665 41.4991H166.048L166.43 41.5345C166.692 41.5345 166.961 41.5345 167.238 41.5345H167.677H167.889C167.962 41.5449 168.036 41.5449 168.109 41.5345H168.512C168.658 41.5454 168.802 41.5667 168.945 41.5983C169.082 41.6267 169.217 41.6669 169.348 41.7187C169.469 41.7661 169.582 41.8331 169.681 41.917C169.775 42.0035 169.843 42.1136 169.879 42.2357C169.929 42.3838 169.944 42.5415 169.922 42.6961V42.6961ZM170.262 39.863C170.282 40.0032 170.26 40.1463 170.198 40.2738C170.134 40.3915 170.045 40.4932 169.936 40.5713C169.824 40.6541 169.696 40.7142 169.561 40.7483C169.427 40.7725 169.291 40.7725 169.157 40.7483H164.525C164.385 40.7558 164.246 40.7265 164.121 40.6633C164.004 40.6056 163.9 40.5235 163.816 40.4225C163.736 40.3185 163.68 40.1974 163.654 40.0684C163.618 39.9337 163.618 39.7922 163.654 39.6575C163.672 39.5387 163.721 39.4265 163.795 39.3317C163.868 39.2392 163.954 39.1581 164.05 39.0909C164.148 39.0221 164.253 38.9628 164.362 38.9138L164.681 38.7722C164.91 38.6882 165.147 38.6288 165.389 38.5951L166.097 38.5101H166.458C166.579 38.5027 166.699 38.5027 166.82 38.5101C167.06 38.5101 167.301 38.5101 167.528 38.5101H167.755C167.832 38.5172 167.911 38.5172 167.988 38.5101H168.222H168.463C168.67 38.5135 168.877 38.5372 169.079 38.5809C169.285 38.6206 169.483 38.6923 169.667 38.7934C169.842 38.8904 169.992 39.0261 170.106 39.1901C170.23 39.3862 170.285 39.618 170.262 39.8488V39.863Z" fill="#407BFF"/>
<path d="M181.007 45.6497C180.826 45.846 180.616 46.0133 180.384 46.1455C180.158 46.2797 179.921 46.3935 179.675 46.4855C179.427 46.5776 179.172 46.6626 178.917 46.7405C178.662 46.8184 178.407 46.8892 178.167 46.9672C177.6 47.1159 177.033 47.2434 176.453 47.3355C175.877 47.4343 175.293 47.4699 174.71 47.4417C174.524 47.4457 174.342 47.3939 174.186 47.293C174.04 47.1979 173.917 47.0722 173.825 46.9247C173.726 46.7692 173.659 46.596 173.626 46.4147C173.602 46.2313 173.602 46.0456 173.626 45.8622C173.646 45.6226 173.689 45.3854 173.754 45.1539C173.815 44.9127 173.894 44.676 173.988 44.4456C174.086 44.2244 174.197 44.0092 174.321 43.8011C174.441 43.5886 174.568 43.3832 174.696 43.1849L175.681 41.7683L176.672 40.3517C176.807 40.1533 176.941 39.9409 177.069 39.7213C177.202 39.5126 177.32 39.2948 177.423 39.0697C177.529 38.8393 177.621 38.6028 177.699 38.3614C177.773 38.1307 177.825 37.8935 177.855 37.6531C177.869 37.5758 177.869 37.4966 177.855 37.4193C177.841 37.3491 177.814 37.282 177.777 37.221C177.74 37.1639 177.689 37.1175 177.628 37.0864C177.561 37.0426 177.481 37.025 177.402 37.0368C177.216 37.043 177.031 37.0667 176.849 37.1077C176.666 37.1503 176.486 37.2072 176.311 37.2777L175.822 37.4831C175.66 37.5651 175.518 37.6811 175.404 37.8231L175.333 37.986L175.27 38.1347L175.22 38.2834C175.185 38.4058 175.125 38.5193 175.043 38.6163C174.966 38.7203 174.876 38.8132 174.774 38.8926C174.668 38.9632 174.554 39.0203 174.434 39.0626C174.316 39.1043 174.191 39.1259 174.066 39.1263C173.898 39.1411 173.73 39.104 173.584 39.0201C173.51 38.9789 173.446 38.9231 173.395 38.8561C173.344 38.7891 173.307 38.7123 173.286 38.6305C173.208 38.4889 173.162 38.3317 173.152 38.1701C173.134 38.0053 173.134 37.8391 173.152 37.6743C173.195 37.4207 173.291 37.1791 173.435 36.966C173.58 36.737 173.757 36.5295 173.959 36.3498C174.164 36.165 174.387 36.0013 174.625 35.8611C174.866 35.7265 175.107 35.599 175.333 35.4928C175.829 35.2706 176.35 35.1089 176.885 35.0111C177.413 34.9168 177.949 34.8788 178.485 34.8978C178.821 34.8972 179.145 35.0237 179.392 35.2519C179.631 35.474 179.819 35.7445 179.944 36.0452C180.088 36.3489 180.191 36.6705 180.249 37.0014C180.306 37.3406 180.327 37.6848 180.313 38.0285C180.293 38.4521 180.199 38.8691 180.037 39.2609C179.879 39.6605 179.69 40.0466 179.47 40.4154L178.634 41.5912C178.358 41.9808 178.082 42.3632 177.791 42.7528C177.501 43.1424 177.274 43.5036 177.04 43.8861C176.804 44.2706 176.621 44.6851 176.495 45.1185C177.083 45.0193 177.664 44.906 178.245 44.7785C178.825 44.651 179.406 44.5448 179.987 44.4669C180.139 44.455 180.29 44.4922 180.419 44.5731C180.54 44.656 180.645 44.759 180.731 44.8777C180.818 44.9825 180.889 45.0994 180.943 45.2247C180.999 45.359 181.021 45.505 181.007 45.6497V45.6497Z" fill="#407BFF"/>
<path d="M147.914 108.738C147.736 108.934 147.528 109.101 147.298 109.234C147.072 109.366 146.835 109.48 146.59 109.573C146.335 109.666 146.087 109.751 145.825 109.828L145.081 110.055C144.515 110.204 143.941 110.331 143.36 110.423C142.785 110.523 142.201 110.558 141.618 110.53C141.434 110.534 141.254 110.482 141.101 110.381C140.951 110.288 140.825 110.162 140.732 110.013C140.64 109.855 140.575 109.682 140.541 109.503C140.513 109.32 140.513 109.133 140.541 108.95C140.555 108.71 140.595 108.473 140.661 108.242C140.722 108 140.802 107.763 140.902 107.534C140.998 107.313 141.107 107.097 141.228 106.889C141.356 106.677 141.476 106.471 141.604 106.273L142.588 104.856L143.587 103.44L143.983 102.809C144.113 102.596 144.231 102.376 144.338 102.151C144.443 101.921 144.533 101.684 144.607 101.442C144.684 101.212 144.736 100.975 144.763 100.734C144.777 100.657 144.777 100.577 144.763 100.5C144.748 100.43 144.722 100.363 144.685 100.302C144.648 100.245 144.596 100.198 144.536 100.167C144.466 100.125 144.383 100.107 144.302 100.118C144.116 100.124 143.931 100.148 143.75 100.189C143.568 100.23 143.39 100.287 143.218 100.359C143.056 100.422 142.893 100.486 142.73 100.564C142.564 100.644 142.419 100.76 142.305 100.904L142.234 101.067L142.17 101.216L142.128 101.364C142.09 101.485 142.03 101.598 141.951 101.697C141.873 101.801 141.78 101.892 141.674 101.966C141.572 102.045 141.457 102.105 141.334 102.143C141.218 102.185 141.096 102.207 140.973 102.207C140.803 102.223 140.632 102.186 140.484 102.101C140.411 102.06 140.346 102.004 140.295 101.937C140.244 101.87 140.207 101.793 140.187 101.711C140.108 101.571 140.064 101.413 140.059 101.251C140.045 101.086 140.045 100.92 140.059 100.755C140.102 100.502 140.199 100.26 140.343 100.047C140.492 99.8211 140.668 99.6142 140.867 99.4307C141.074 99.2459 141.3 99.0821 141.54 98.942C141.769 98.8069 142.006 98.6839 142.248 98.5737C142.747 98.3525 143.27 98.1908 143.806 98.092C144.332 97.998 144.866 97.96 145.4 97.9787C145.736 97.9767 146.061 98.1034 146.307 98.3328C146.549 98.5513 146.738 98.8228 146.859 99.1261C147.005 99.4288 147.108 99.7508 147.164 100.082C147.22 100.422 147.242 100.766 147.227 101.109C147.206 101.532 147.115 101.949 146.958 102.342C146.796 102.74 146.604 103.126 146.385 103.496L145.549 104.672C145.28 105.062 144.996 105.444 144.706 105.834C144.415 106.223 144.196 106.584 143.955 106.967C143.722 107.353 143.538 107.767 143.41 108.199C143.998 108.1 144.585 107.987 145.166 107.859C145.747 107.732 146.321 107.626 146.909 107.548C147.058 107.537 147.207 107.575 147.334 107.654C147.456 107.735 147.562 107.838 147.645 107.959C147.737 108.061 147.811 108.179 147.865 108.306C147.914 108.444 147.931 108.592 147.914 108.738V108.738Z" fill="#407BFF"/>
<path d="M156.768 104.332C156.752 104.459 156.712 104.582 156.647 104.693C156.584 104.807 156.506 104.912 156.414 105.005C156.319 105.092 156.211 105.163 156.095 105.217C155.979 105.272 155.854 105.303 155.727 105.31C155.514 105.31 155.309 105.31 155.103 105.31C154.898 105.31 154.693 105.31 154.48 105.31C154.48 105.487 154.48 105.664 154.43 105.848C154.422 106.031 154.403 106.213 154.374 106.393C154.352 106.543 154.291 106.685 154.197 106.804C154.105 106.924 153.998 107.031 153.878 107.123C153.757 107.223 153.624 107.306 153.481 107.371C153.336 107.432 153.179 107.464 153.021 107.463C152.817 107.429 152.634 107.318 152.511 107.151C152.392 106.986 152.31 106.798 152.27 106.599C152.225 106.382 152.201 106.161 152.199 105.94C152.199 105.713 152.199 105.501 152.199 105.31H151.675H151.13C150.98 105.304 150.833 105.26 150.705 105.182C150.578 105.111 150.469 105.011 150.386 104.892C150.304 104.772 150.235 104.644 150.181 104.509C150.116 104.37 150.099 104.213 150.131 104.063C150.197 103.847 150.331 103.658 150.514 103.525C150.694 103.397 150.895 103.301 151.109 103.241C151.34 103.181 151.578 103.143 151.817 103.128L152.476 103.064V102.894C152.5 102.682 152.535 102.472 152.582 102.264C152.63 102.042 152.708 101.827 152.816 101.626C152.914 101.437 153.051 101.27 153.219 101.138C153.399 100.998 153.623 100.93 153.85 100.946C153.97 100.946 154.088 100.973 154.197 101.024C154.306 101.074 154.404 101.143 154.487 101.23C154.571 101.31 154.638 101.407 154.685 101.513C154.734 101.625 154.758 101.746 154.756 101.867C154.756 102.08 154.721 102.292 154.721 102.498C154.72 102.708 154.706 102.919 154.678 103.128H154.877C155.09 103.126 155.303 103.138 155.514 103.163C155.731 103.189 155.944 103.246 156.145 103.333C156.33 103.412 156.493 103.537 156.619 103.695C156.688 103.784 156.737 103.887 156.762 103.997C156.788 104.107 156.79 104.221 156.768 104.332V104.332Z" fill="#407BFF"/>
<path d="M166.882 108.738C166.704 108.934 166.496 109.101 166.266 109.234C166.04 109.367 165.803 109.481 165.558 109.574C165.31 109.666 165.055 109.751 164.8 109.828L164.049 110.055C163.484 110.207 162.912 110.33 162.335 110.423C161.76 110.522 161.175 110.558 160.592 110.53C160.407 110.533 160.225 110.481 160.068 110.381C159.923 110.286 159.799 110.16 159.707 110.013C159.614 109.855 159.55 109.682 159.516 109.503C159.484 109.32 159.484 109.133 159.516 108.95C159.53 108.71 159.57 108.473 159.636 108.242C159.697 108 159.777 107.763 159.877 107.534C159.973 107.313 160.082 107.097 160.203 106.889C160.323 106.677 160.451 106.471 160.578 106.273L161.563 104.856L162.562 103.44C162.689 103.241 162.824 103.029 162.951 102.809C163.085 102.598 163.206 102.378 163.312 102.151C163.418 101.921 163.508 101.684 163.581 101.442C163.655 101.212 163.708 100.974 163.737 100.734C163.755 100.657 163.755 100.577 163.737 100.5C163.726 100.43 163.702 100.363 163.666 100.302C163.629 100.245 163.578 100.198 163.518 100.167C163.448 100.125 163.365 100.107 163.284 100.118C163.098 100.124 162.913 100.148 162.732 100.189C162.548 100.231 162.368 100.288 162.193 100.359C162.03 100.422 161.874 100.486 161.712 100.564C161.546 100.644 161.401 100.76 161.287 100.904L161.216 101.067L161.152 101.216L161.11 101.364C161.069 101.484 161.009 101.597 160.932 101.697C160.853 101.799 160.76 101.89 160.656 101.966C160.553 102.043 160.438 102.103 160.316 102.143C160.2 102.185 160.078 102.207 159.955 102.207C159.785 102.223 159.614 102.186 159.466 102.101C159.393 102.06 159.328 102.004 159.277 101.937C159.226 101.87 159.189 101.793 159.169 101.711C159.089 101.571 159.046 101.413 159.041 101.251C159.02 101.086 159.02 100.92 159.041 100.755C159.084 100.502 159.181 100.26 159.325 100.047C159.472 99.8195 159.648 99.6124 159.849 99.4307C160.054 99.246 160.277 99.0822 160.515 98.942C160.755 98.8074 160.996 98.6799 161.223 98.5737C161.719 98.3515 162.24 98.1898 162.774 98.092C163.302 97.998 163.839 97.96 164.375 97.9787C164.711 97.9767 165.035 98.1034 165.281 98.3328C165.52 98.5549 165.708 98.8254 165.834 99.1261C165.98 99.4288 166.083 99.7508 166.138 100.082C166.195 100.422 166.217 100.766 166.202 101.109C166.181 101.532 166.09 101.949 165.933 102.342C165.77 102.74 165.579 103.126 165.359 103.496L164.524 104.672C164.254 105.062 163.971 105.444 163.681 105.834C163.39 106.223 163.171 106.585 162.93 106.967C162.697 107.353 162.513 107.767 162.384 108.199C162.972 108.1 163.56 107.987 164.134 107.859C164.708 107.732 165.296 107.626 165.883 107.548C166.033 107.537 166.182 107.575 166.308 107.654C166.431 107.735 166.536 107.838 166.62 107.959C166.712 108.06 166.784 108.178 166.833 108.306C166.885 108.443 166.902 108.592 166.882 108.738V108.738Z" fill="#407BFF"/>
<path d="M176.261 105.784C176.218 105.928 176.148 106.063 176.055 106.181C175.96 106.301 175.848 106.406 175.722 106.492C175.6 106.579 175.467 106.648 175.326 106.698C175.187 106.749 175.041 106.778 174.894 106.783C174.185 106.832 173.519 106.854 172.84 106.847C172.16 106.839 171.494 106.847 170.821 106.769C170.67 106.759 170.523 106.718 170.389 106.648C170.125 106.524 169.916 106.307 169.801 106.039C169.737 105.901 169.701 105.752 169.695 105.6C169.687 105.488 169.714 105.377 169.773 105.281C169.828 105.19 169.903 105.113 169.992 105.055C170.082 104.989 170.18 104.935 170.283 104.892L170.587 104.785C170.82 104.723 171.057 104.673 171.295 104.637C171.53 104.603 171.767 104.587 172.004 104.587H172.393L172.776 104.623C173.031 104.623 173.3 104.623 173.576 104.623H174.015H174.228C174.301 104.633 174.375 104.633 174.447 104.623H174.851C174.996 104.633 175.141 104.655 175.283 104.686C175.421 104.715 175.556 104.755 175.687 104.807C175.809 104.851 175.922 104.919 176.02 105.005C176.113 105.091 176.182 105.202 176.218 105.324C176.268 105.472 176.283 105.629 176.261 105.784V105.784ZM176.601 102.951C176.625 103.091 176.602 103.235 176.537 103.362C176.473 103.479 176.383 103.581 176.275 103.659C176.163 103.743 176.035 103.804 175.899 103.836C175.766 103.861 175.629 103.861 175.496 103.836H170.863C170.726 103.845 170.589 103.815 170.467 103.751C170.346 103.696 170.239 103.613 170.155 103.51C170.074 103.407 170.019 103.285 169.992 103.156C169.964 103.021 169.964 102.881 169.992 102.746C170.011 102.627 170.06 102.515 170.134 102.42C170.206 102.327 170.292 102.246 170.389 102.179C170.487 102.108 170.591 102.046 170.7 101.995L171.019 101.853C171.248 101.769 171.486 101.71 171.727 101.676L172.436 101.591H172.797C172.917 101.584 173.038 101.584 173.158 101.591C173.399 101.591 173.647 101.591 173.867 101.591H174.1C174.176 101.598 174.252 101.598 174.327 101.591H174.561H174.801C175.009 101.594 175.215 101.618 175.418 101.662C175.624 101.7 175.822 101.772 176.006 101.874C176.18 101.971 176.331 102.107 176.445 102.271C176.57 102.469 176.625 102.704 176.601 102.937V102.951Z" fill="#407BFF"/>
<path d="M186.652 105.019C186.603 105.246 186.514 105.462 186.39 105.657C186.269 105.859 186.088 106.017 185.872 106.11C185.846 106.196 185.827 106.283 185.816 106.372L185.773 106.634C185.773 106.825 185.773 107.017 185.773 107.215L185.731 107.796C185.731 107.987 185.731 108.171 185.731 108.355C185.731 108.539 185.695 108.731 185.674 108.922C185.652 109.097 185.614 109.27 185.561 109.439C185.507 109.613 185.425 109.778 185.32 109.928C185.222 110.077 185.097 110.206 184.952 110.31C184.778 110.431 184.576 110.503 184.365 110.518C184.154 110.533 183.943 110.491 183.755 110.395C183.65 110.345 183.557 110.273 183.482 110.184C183.408 110.095 183.353 109.99 183.323 109.878C183.236 109.652 183.198 109.411 183.209 109.17C183.209 108.901 183.209 108.639 183.252 108.391C183.294 108.143 183.316 107.81 183.358 107.541C183.39 107.4 183.413 107.259 183.429 107.116L183.493 106.698C183.482 106.623 183.482 106.546 183.493 106.471C183.504 106.398 183.504 106.324 183.493 106.252C183.386 106.245 183.28 106.245 183.174 106.252H182.862C182.473 106.252 182.083 106.252 181.701 106.202C181.321 106.171 180.946 106.1 180.581 105.99L180.072 105.841C179.897 105.786 179.727 105.72 179.562 105.642C179.401 105.569 179.249 105.479 179.108 105.373C178.972 105.264 178.853 105.135 178.754 104.991C178.688 104.869 178.649 104.733 178.641 104.594C178.63 104.446 178.63 104.296 178.641 104.148C178.681 103.787 178.757 103.431 178.867 103.086C178.981 102.731 179.108 102.377 179.25 102.044C179.392 101.711 179.576 101.336 179.753 101.003C179.93 100.67 180.135 100.337 180.348 100.011C180.452 99.8415 180.565 99.6786 180.688 99.5228C180.808 99.3599 180.936 99.2111 181.07 99.0624C181.205 98.9136 181.311 98.7932 181.439 98.6586C181.57 98.5305 181.727 98.4316 181.899 98.3683C182.066 98.3596 182.233 98.3963 182.381 98.4745C182.521 98.5508 182.652 98.6436 182.77 98.7507C182.883 98.8749 182.982 99.0102 183.068 99.1545C183.151 99.3032 183.191 99.4728 183.181 99.6432C183.106 99.9526 182.989 100.25 182.834 100.529C182.671 100.805 182.515 101.088 182.359 101.371C182.203 101.655 181.998 102.016 181.835 102.342C181.67 102.664 181.524 102.995 181.396 103.333C181.75 103.397 182.104 103.454 182.466 103.489L183.549 103.624C183.6 103.376 183.638 103.125 183.663 102.873L183.726 102.115C183.726 101.874 183.769 101.626 183.783 101.407C183.797 101.187 183.783 100.904 183.833 100.663C183.882 100.422 183.889 100.118 183.932 99.8486C183.975 99.5704 184.039 99.2958 184.123 99.027C184.156 98.9013 184.208 98.7817 184.279 98.6728C184.349 98.5637 184.438 98.4678 184.541 98.3895C184.639 98.3057 184.752 98.2408 184.874 98.1983C184.995 98.1613 185.123 98.1492 185.249 98.1628C185.418 98.1782 185.581 98.2341 185.724 98.3258C185.861 98.4088 185.981 98.5169 186.078 98.6445C186.176 98.777 186.25 98.9256 186.297 99.0836C186.341 99.2451 186.36 99.4123 186.354 99.5794C186.354 99.8982 186.354 100.217 186.305 100.536C186.255 100.854 186.255 101.173 186.22 101.492C186.184 101.811 186.163 102.136 186.127 102.455C186.092 102.774 186.064 103.1 186.035 103.425C186.028 103.515 186.028 103.605 186.035 103.695C186.046 103.784 186.046 103.874 186.035 103.964C186.246 104.068 186.425 104.227 186.552 104.424C186.642 104.609 186.677 104.815 186.652 105.019V105.019Z" fill="#407BFF"/>
<path d="M220.365 246.707C219.762 246.801 219.146 246.667 218.636 246.331C218.573 246.245 218.539 246.141 218.539 246.034C218.539 245.927 218.573 245.823 218.636 245.736C218.726 245.573 218.876 245.45 219.054 245.396C220.018 245.092 222.093 246.169 222.185 246.218C222.21 246.231 222.231 246.252 222.244 246.277C222.256 246.303 222.261 246.332 222.256 246.36C222.252 246.387 222.24 246.413 222.221 246.433C222.202 246.454 222.177 246.467 222.15 246.473C221.564 246.608 220.966 246.687 220.365 246.707ZM219.394 245.616C219.305 245.616 219.217 245.63 219.132 245.659C219.076 245.67 219.022 245.694 218.977 245.73C218.931 245.766 218.895 245.812 218.87 245.864C218.771 246.041 218.814 246.119 218.87 246.161C219.161 246.53 220.627 246.48 221.703 246.31C220.985 245.934 220.201 245.698 219.394 245.616V245.616Z" fill="#407BFF"/>
<path d="M222.115 246.487H222.058C221.35 246.204 219.898 245 219.997 244.362C219.997 244.199 220.117 244.001 220.493 243.952C220.63 243.932 220.769 243.939 220.903 243.975C221.037 244.01 221.163 244.072 221.272 244.157C222.037 244.738 222.256 246.282 222.264 246.374C222.268 246.398 222.264 246.423 222.254 246.446C222.244 246.469 222.228 246.488 222.207 246.501C222.175 246.507 222.143 246.502 222.115 246.487V246.487ZM220.599 244.185H220.521C220.273 244.185 220.259 244.313 220.252 244.348C220.252 244.745 221.187 245.694 221.924 246.098C221.829 245.44 221.535 244.826 221.081 244.341C220.945 244.232 220.773 244.176 220.599 244.185Z" fill="#407BFF"/>
<path d="M228.986 249.235L223.178 249.469L218.518 223.857L218.1 221.541L217.816 219.99H226.557L226.599 220.535L226.854 223.524L228.986 249.235Z" fill="#FFB573"/>
<path d="M222.696 245.637L229.071 245.389C229.186 245.383 229.301 245.417 229.394 245.485C229.487 245.554 229.553 245.653 229.581 245.765L230.934 250.886C230.992 251.103 230.963 251.334 230.851 251.529C230.74 251.724 230.556 251.867 230.339 251.927C230.28 251.937 230.22 251.937 230.162 251.927C227.867 251.984 225.827 251.927 222.98 252.054C219.615 252.182 220.486 252.557 216.534 252.763C214.154 252.89 213.609 250.199 214.615 250.029C219.211 249.264 219.636 247.847 221.358 246.126C221.731 245.808 222.206 245.635 222.696 245.637V245.637Z" fill="#263238"/>
<path d="M215.323 140.108H214.877L214.522 140.051L213.85 139.945C213.41 139.867 212.993 139.775 212.568 139.683C211.732 139.492 210.917 139.258 210.117 138.975C208.528 138.472 206.974 137.866 205.463 137.162C203.964 136.456 202.509 135.659 201.107 134.775C200.399 134.357 199.691 133.889 199.046 133.429C198.402 132.969 197.757 132.48 197.049 131.942C195.446 130.628 194.165 128.966 193.302 127.083C192.572 125.541 191.991 123.933 191.567 122.28C191.17 120.715 190.646 110.749 190.639 109.156L194.626 107.463C195.547 110.161 196.617 117.45 197.807 120.035C198.364 121.219 199.008 122.36 199.733 123.449C200.236 124.258 200.904 124.951 201.695 125.482C202.226 125.786 202.857 126.19 203.438 126.495C204.018 126.799 204.628 127.161 205.244 127.451C205.86 127.741 206.462 128.053 207.085 128.322C207.709 128.591 208.332 128.853 208.948 129.137C210.202 129.625 211.463 130.079 212.738 130.454C213.361 130.652 216.116 129.292 216.739 129.462L217.66 129.675L218.411 129.831L215.323 140.108Z" fill="#263238"/>
<path d="M194.633 107.477L193.564 102.816L187.508 105.168C187.988 106.734 188.987 108.091 190.341 109.014C190.737 109.264 191.201 109.382 191.668 109.351C192.135 109.32 192.581 109.143 192.94 108.844L194.633 107.477Z" fill="#FFB573"/>
<path d="M189.165 99.9407L185.439 103.022L187.508 105.168L193.557 102.809L189.165 99.9407Z" fill="#FFB573"/>
<path d="M211.37 135.285C210.775 140.76 210.52 152.071 213.495 173.016L244.589 171.776C244.589 167.378 241.572 154.302 243.959 134.626C244.137 133.214 243.748 131.79 242.877 130.665C242.006 129.54 240.724 128.807 239.312 128.627H239.121C237.598 128.499 235.905 128.4 234.255 128.386C229.841 128.305 225.425 128.48 221.031 128.91C219.338 129.13 217.688 129.462 216.271 129.781C214.985 130.078 213.823 130.767 212.945 131.753C212.067 132.739 211.517 133.973 211.37 135.285Z" fill="#263238"/>
<path d="M231.216 118.328C231.011 122.401 231.429 127.111 233.858 129.066C230.235 131.851 226.233 134.105 221.973 135.759C217.66 132.374 219.848 129.88 219.848 129.88C223.864 127.918 223.737 124.922 222.681 121.692L228.78 116.869C229.771 115.934 231.287 116.826 231.216 118.328Z" fill="#FFB573"/>
<path opacity="0.2" d="M231.216 118.328C231.294 116.834 229.799 115.934 228.758 116.855L222.674 121.714C223.233 123.138 223.404 124.685 223.17 126.197C224.539 126.315 225.916 126.101 227.186 125.574C228.83 124.93 230.242 123.804 231.237 122.344C231.145 121.007 231.138 119.666 231.216 118.328V118.328Z" fill="black"/>
<path d="M238.207 113.689C237.895 114.397 237.605 115.056 237.343 115.686C235.537 119.83 234.269 122.464 230.699 123.931C224.537 126.466 217.851 121.246 218.346 115.282C218.793 109.906 222.532 102.108 229.318 102.122C234.623 102.122 238.526 105.94 238.816 110.147C238.913 111.36 238.704 112.578 238.207 113.689V113.689Z" fill="#FFB573"/>
<path d="M222.1 115.672C222.726 116.072 223.439 116.314 224.179 116.38C224.919 116.445 225.664 116.331 226.35 116.047C226.369 116.038 226.385 116.025 226.399 116.009C226.413 115.994 226.423 115.975 226.43 115.956C226.436 115.936 226.439 115.915 226.437 115.894C226.436 115.874 226.43 115.853 226.421 115.835C226.412 115.816 226.399 115.8 226.383 115.786C226.367 115.772 226.349 115.762 226.329 115.755C226.31 115.749 226.289 115.746 226.268 115.748C226.247 115.749 226.227 115.755 226.208 115.764V115.764C225.571 116.013 224.883 116.109 224.202 116.044C223.52 115.979 222.863 115.754 222.284 115.389C222.247 115.367 222.202 115.361 222.16 115.372C222.118 115.382 222.081 115.409 222.058 115.445C222.046 115.463 222.037 115.483 222.033 115.504C222.028 115.525 222.028 115.546 222.032 115.567C222.036 115.588 222.044 115.609 222.056 115.626C222.068 115.644 222.083 115.66 222.1 115.672V115.672Z" fill="#263238"/>
<path d="M227.761 110.494C227.492 110.933 227.053 111.146 226.762 110.969C226.472 110.792 226.458 110.303 226.762 109.864C227.067 109.425 227.471 109.212 227.761 109.389C228.051 109.566 228.03 110.083 227.761 110.494Z" fill="#263238"/>
<path d="M222.738 108.49C222.469 108.929 222.03 109.198 221.74 108.964C221.449 108.731 221.428 108.299 221.697 107.859C221.966 107.42 222.405 107.151 222.703 107.385C223 107.619 223 108.058 222.738 108.49Z" fill="#263238"/>
<path d="M229.765 109.623C229.715 109.595 229.675 109.553 229.647 109.503C229.62 109.453 229.606 109.397 229.609 109.34C229.635 108.964 229.57 108.588 229.419 108.243C229.269 107.897 229.038 107.593 228.745 107.357C228.712 107.333 228.685 107.304 228.663 107.27C228.642 107.236 228.628 107.198 228.621 107.159C228.615 107.119 228.616 107.079 228.625 107.04C228.634 107.001 228.651 106.964 228.674 106.932C228.718 106.867 228.786 106.823 228.863 106.808C228.94 106.794 229.02 106.81 229.085 106.854V106.854C229.459 107.151 229.755 107.534 229.95 107.971C230.145 108.407 230.232 108.884 230.204 109.361C230.197 109.442 230.158 109.518 230.095 109.571C230.033 109.624 229.953 109.65 229.871 109.644H229.758L229.765 109.623Z" fill="#263238"/>
<path d="M221.767 105.38C221.71 105.357 221.661 105.318 221.626 105.267C221.599 105.235 221.58 105.197 221.569 105.156C221.558 105.116 221.556 105.073 221.562 105.032C221.569 104.99 221.584 104.95 221.608 104.915C221.631 104.88 221.661 104.85 221.696 104.828V104.828C222.093 104.56 222.548 104.39 223.024 104.333C223.5 104.277 223.982 104.334 224.43 104.502C224.502 104.54 224.555 104.604 224.581 104.68C224.606 104.757 224.6 104.84 224.565 104.913C224.53 104.981 224.47 105.034 224.398 105.06C224.326 105.087 224.246 105.085 224.175 105.055V105.055C223.817 104.922 223.432 104.878 223.053 104.927C222.674 104.977 222.313 105.118 222.001 105.338C221.931 105.38 221.848 105.395 221.767 105.38Z" fill="#263238"/>
<path d="M223.561 110.778C222.484 111.486 222.357 111.358 221.061 111.812C221.467 112.361 222.072 112.729 222.746 112.839L223.561 110.778Z" fill="#FF5652"/>
<path opacity="0.3" d="M238.208 113.689C237.896 114.397 237.606 115.056 237.344 115.686C236.856 115.499 236.323 115.462 235.814 115.58C234.992 115.814 234.271 116.312 233.76 116.996C234.21 114.941 234.819 112.923 235.58 110.962C235.828 110.331 235.998 109.283 236.834 109.368C237.543 109.49 238.219 109.76 238.817 110.161C238.912 111.37 238.702 112.582 238.208 113.689V113.689Z" fill="black"/>
<path d="M237.28 118.838C236.487 119.736 235.383 120.298 234.191 120.41C232.711 120.488 232.506 118.937 233.363 117.577C234.128 116.352 235.835 114.836 237.103 115.389C238.37 115.941 238.328 117.698 237.28 118.838Z" fill="#FFB573"/>
<path opacity="0.2" d="M226.599 220.535L226.854 223.524L218.659 224.643L218.099 221.541L217.603 221.598L217.199 216.746L217.164 216.321L227.25 215.917L227.512 217.369L228.036 220.365L226.599 220.535Z" fill="black"/>
<path d="M213.488 173.023C212.114 183.652 211.83 194.393 212.638 205.08C213.346 212.737 214.763 216.604 214.763 216.604L227.512 217.369C227.512 217.369 227.795 213.311 227.895 206.164C227.59 186.381 233.936 172.201 233.936 172.201L213.488 173.023Z" fill="#407BFF"/>
<path opacity="0.3" d="M230.112 181.685C224.991 183.01 226.479 191.644 228.228 197.466C228.647 192.152 229.524 186.884 230.849 181.721L230.112 181.685Z" fill="black"/>
<path d="M266.766 233.993C266.341 234.609 265.852 235.147 265.434 235.155C265.327 235.152 265.224 235.117 265.137 235.055C265.05 234.993 264.983 234.907 264.945 234.807C264.909 234.721 264.891 234.628 264.891 234.535C264.891 234.441 264.909 234.348 264.945 234.262C265.285 233.313 267.389 232.3 267.488 232.25C267.522 232.238 267.56 232.238 267.594 232.251C267.627 232.264 267.655 232.289 267.672 232.321C267.686 232.358 267.686 232.398 267.672 232.435C267.418 232.981 267.114 233.502 266.766 233.993ZM265.349 234.113C265.293 234.183 265.25 234.262 265.221 234.347C265.199 234.4 265.187 234.456 265.187 234.513C265.187 234.571 265.199 234.627 265.221 234.68C265.306 234.857 265.399 234.878 265.455 234.878C265.923 234.878 266.766 233.66 267.254 232.683C266.525 233.023 265.87 233.505 265.328 234.099L265.349 234.113Z" fill="#407BFF"/>
<path d="M267.636 232.456H267.587C266.921 232.853 265.101 233.285 264.626 232.817C264.513 232.711 264.414 232.513 264.591 232.18C264.659 232.056 264.753 231.949 264.865 231.864C264.977 231.778 265.105 231.717 265.242 231.684C266.163 231.422 267.552 232.18 267.608 232.208C267.628 232.222 267.645 232.239 267.657 232.26C267.669 232.281 267.677 232.304 267.679 232.328C267.676 232.374 267.661 232.418 267.636 232.456ZM264.902 232.321L264.853 232.392C264.732 232.612 264.81 232.683 264.853 232.697C265.143 232.973 266.496 232.768 267.261 232.413C266.675 232.094 266.005 231.961 265.342 232.031C265.163 232.068 265.006 232.172 264.902 232.321Z" fill="#407BFF"/>
<path d="M273.976 228.617L270.668 233.405L245.658 216.512L251.714 209.84L273.976 228.617Z" fill="#FFB573"/>
<path d="M267.318 231.486L270.93 226.258C270.995 226.162 271.091 226.091 271.202 226.058C271.313 226.024 271.432 226.03 271.539 226.074L276.448 228.072C276.551 228.112 276.646 228.173 276.726 228.25C276.806 228.327 276.869 228.42 276.914 228.522C276.958 228.624 276.981 228.734 276.983 228.845C276.984 228.956 276.964 229.066 276.922 229.169C276.899 229.233 276.866 229.293 276.823 229.346C275.492 231.209 273.501 233.858 271.865 236.231C269.953 239.008 271.355 237.294 269.11 240.545C267.75 242.514 265.391 241.685 265.774 240.736C267.545 236.422 267.254 235.303 266.907 232.902C266.859 232.395 267.006 231.888 267.318 231.486V231.486Z" fill="#263238"/>
<path opacity="0.2" d="M243.533 214.968L249.766 219.289L254.597 212.277L248.668 207.531L243.533 214.968Z" fill="black"/>
<path d="M224.531 172.584C224.531 172.584 227.924 189.866 235.262 205.264C240.73 215.096 243.839 215.889 243.839 215.889L253.316 208.742C253.316 208.742 251.772 206.284 250.285 200.342C245.886 181.154 244.619 171.755 244.619 171.755L224.531 172.584Z" fill="#407BFF"/>
<path d="M240.227 216.101C240.227 216.144 243.577 218.517 243.577 218.517L255.165 209.068L252.721 206.313L240.227 216.101Z" fill="#263238"/>
<path d="M229.12 215.096V220.238L228.043 220.365L226.626 220.535L218.127 221.541L217.631 221.598L214.748 221.938C214.748 221.938 213.594 216.314 213.65 216.314L214.642 216.236L227.668 215.216L229.12 215.096Z" fill="#263238"/>
<path d="M240.864 143.37L222.248 146.269L226.174 171.485L244.791 168.586L240.864 143.37Z" fill="#407BFF"/>
<path opacity="0.3" d="M240.864 143.37L222.248 146.269L226.174 171.485L244.791 168.586L240.864 143.37Z" fill="black"/>
<path d="M239.32 144.825L240.864 143.373L244.795 168.589L243.244 170.048L239.32 144.825Z" fill="#407BFF"/>
<path d="M239.323 144.83L220.707 147.728L224.633 172.944L243.25 170.046L239.323 144.83Z" fill="#407BFF"/>
<path opacity="0.2" d="M239.323 144.83L220.707 147.728L224.633 172.944L243.25 170.046L239.323 144.83Z" fill="white"/>
<path d="M222.313 146.66C222.336 146.752 222.334 146.849 222.306 146.94C222.279 147.031 222.227 147.113 222.157 147.177C221.701 147.401 221.227 147.586 220.74 147.729L239.354 144.825L240.388 143.855L222.313 146.66Z" fill="#407BFF"/>
<g opacity="0.8">
<path d="M222.313 146.66C222.336 146.752 222.334 146.849 222.306 146.94C222.279 147.031 222.227 147.113 222.157 147.177C221.701 147.401 221.227 147.586 220.74 147.729L239.354 144.825L240.388 143.855L222.313 146.66Z" fill="white"/>
</g>
<path d="M242.04 129.795C244.789 130.998 247.103 133.015 248.669 135.575C249.193 136.234 250.603 140.087 251.503 141.447C252.402 142.807 253.245 144.174 254.038 145.583C254.832 146.993 255.611 148.417 256.347 149.833L256.489 150.102L256.737 150.612C256.928 151.046 257.077 151.496 257.183 151.958C257.403 152.971 257.367 154.023 257.077 155.018C256.836 155.837 256.439 156.602 255.908 157.27C255.51 157.78 255.057 158.243 254.555 158.651C253.759 159.314 252.883 159.875 251.949 160.323C251.142 160.726 250.312 161.081 249.463 161.385C247.874 161.945 246.248 162.392 244.597 162.724C242.985 163.066 241.352 163.303 239.709 163.432L238.746 159.183C241.468 158.057 244.122 156.773 246.693 155.337C247.268 155.01 247.824 154.651 248.358 154.26C248.785 153.946 249.181 153.593 249.541 153.205C249.803 152.907 249.781 152.659 249.597 153.035C249.516 153.261 249.492 153.505 249.526 153.743C249.536 153.829 249.553 153.914 249.576 153.998V153.998L249.533 153.934L249.385 153.707C247.751 151.186 246.051 148.714 244.285 146.292C243.4 145.08 242.507 143.876 241.579 142.686L240.226 140.916L238.902 139.23L242.04 129.795Z" fill="#263238"/>
<path d="M242.329 159.161L237.647 158.205L237.236 164.679C237.236 164.679 240.941 165.302 243.214 162.554L242.329 159.161Z" fill="#FFB573"/>
<path d="M233.518 161.237L234.446 163.617C234.58 163.964 234.821 164.259 235.134 164.459C235.448 164.659 235.817 164.753 236.188 164.729L237.236 164.651L237.64 158.17L234.715 158.921C234.49 158.974 234.279 159.072 234.092 159.209C233.906 159.345 233.749 159.517 233.629 159.715C233.51 159.912 233.431 160.132 233.398 160.36C233.364 160.589 233.376 160.822 233.433 161.045C233.457 161.111 233.485 161.175 233.518 161.237Z" fill="#FFB573"/>
<path d="M220.918 128.117C220.805 128.362 220.746 128.629 220.746 128.899C220.746 129.17 220.805 129.437 220.918 129.682C221.301 130.291 222.193 130.263 222.909 130.157L232.301 128.74C232.657 128.735 233.008 128.656 233.331 128.507C233.654 128.358 233.943 128.143 234.178 127.876C234.695 127.076 234.1 125.942 233.229 125.546C232.318 125.223 231.334 125.174 230.395 125.404C228.373 125.799 226.326 126.055 224.269 126.169C222.512 126.19 221.549 126.197 220.918 128.117Z" fill="#263238"/>
<path d="M217.829 132.289C217.786 133.105 217.959 133.919 218.333 134.647C218.706 135.375 219.265 135.991 219.954 136.432C221.352 137.295 223.009 137.638 224.635 137.402C228.086 136.775 231.283 135.167 233.843 132.77C234.622 131.934 235.26 130.787 234.962 129.689C234.808 129.259 234.549 128.874 234.209 128.569C233.869 128.264 233.459 128.047 233.015 127.94C232.125 127.739 231.207 127.693 230.302 127.805C227.051 128.053 218.282 127.593 217.829 132.289Z" fill="#263238"/>
<path d="M241.671 104.077C240.994 104.33 240.353 104.67 239.765 105.09H239.73C239.908 104.276 239.908 103.432 239.73 102.618C239.724 102.595 239.714 102.574 239.701 102.555C239.687 102.536 239.669 102.52 239.649 102.508C239.629 102.496 239.607 102.487 239.584 102.484C239.56 102.48 239.537 102.481 239.514 102.487C239.491 102.493 239.47 102.503 239.451 102.516C239.432 102.53 239.416 102.548 239.404 102.568C239.392 102.588 239.383 102.61 239.38 102.633C239.376 102.657 239.377 102.68 239.383 102.703C239.513 103.405 239.513 104.126 239.383 104.828C238.328 104.081 237.207 103.434 236.033 102.894C233.391 101.563 232.959 102.724 226.952 98.092C226.561 98.317 226.125 98.4549 225.675 98.4965C225.226 98.5381 224.772 98.4822 224.346 98.3328C224.715 99.2124 225.296 99.9864 226.039 100.585C224.976 100.684 224.353 99.2607 223.475 98.8428C222.486 99.1205 221.434 99.0683 220.479 98.6941C221.619 102.094 223.043 102.193 226.18 103.376C228.008 104.084 229.722 105.621 231.337 106.705L236.755 110.353C237.527 110.87 238.398 111.415 239.319 111.273C240.537 111.075 241.253 109.736 241.31 108.511C241.338 107.92 241.234 107.33 241.006 106.783C240.778 106.237 240.432 105.748 239.992 105.352C240.536 104.976 241.124 104.667 241.742 104.431C241.765 104.425 241.786 104.414 241.805 104.399C241.823 104.384 241.838 104.365 241.849 104.343C241.86 104.322 241.866 104.298 241.867 104.275C241.868 104.251 241.864 104.227 241.855 104.205C241.842 104.166 241.818 104.133 241.784 104.11C241.751 104.087 241.711 104.075 241.671 104.077V104.077Z" fill="#263238"/>
<path d="M198.691 101.775L183.364 106.379C183.282 106.397 183.197 106.397 183.116 106.379L181.699 106.244L182.691 105.359C182.754 105.302 182.829 105.258 182.91 105.232L198.153 100.174C198.308 100.123 198.477 100.134 198.624 100.204C198.772 100.274 198.887 100.398 198.946 100.55L199.081 100.904C199.119 100.986 199.14 101.075 199.14 101.166C199.141 101.256 199.122 101.346 199.085 101.429C199.048 101.511 198.994 101.585 198.926 101.645C198.858 101.705 198.778 101.749 198.691 101.775V101.775Z" fill="#263238"/>
<path d="M191.07 104.063L187.507 103.291L186.537 104.063L190.426 106.875L191.07 104.063Z" fill="#FFB573"/>
<path d="M83.5155 40.4154C82.63 40.5026 81.7753 40.7871 81.0141 41.248C80.2529 41.7088 79.6047 42.3344 79.117 43.0786C78.1572 44.5782 77.6032 46.3012 77.5092 48.0792C77.3496 49.457 77.5096 50.853 77.9766 52.159C78.2158 52.8081 78.593 53.3975 79.0821 53.8867C79.5713 54.3758 80.1607 54.753 80.8098 54.9922C82.5664 55.5588 84.5496 54.7443 85.8104 53.3914C87.0068 51.9588 87.838 50.2575 88.2328 48.4333C89.1606 45.1327 87.829 40.1746 83.5155 40.4154Z" fill="#263238"/>
<path d="M105.819 256.694C101.846 257.02 98.9703 255.242 98.1486 253.365C97.327 251.488 95.9742 249.597 95.7971 251.346C95.7167 253.129 95.7428 254.914 95.875 256.694L95.2588 256.758C95.2588 256.758 94.5505 250.921 94.3026 248.315C94.1823 247.487 94.1184 246.651 94.1113 245.814C94.2257 245.368 94.4298 244.949 94.7111 244.584C94.9923 244.219 95.3449 243.914 95.7475 243.689L100.592 244.398C103.518 251.856 108.235 253.939 108.235 253.939C109.168 254.131 110.063 254.475 110.884 254.958C112.315 255.893 110.452 256.297 105.819 256.694Z" fill="#263238"/>
<path d="M96.0104 246.062C96.6528 247.529 97.6688 248.801 98.9569 249.752C99.9556 250.425 100.451 253.506 102.739 254.335C103.631 254.676 104.588 254.812 105.539 254.734C106.49 254.655 107.412 254.364 108.236 253.882C108.236 253.882 103.525 251.799 100.579 244.362C100.579 244.362 95.6563 244.879 96.0104 246.062Z" fill="#FFB573"/>
<path d="M79.6475 256.241C75.8864 254.966 73.9811 252.182 73.9811 250.142C73.9811 248.102 73.4853 245.807 72.6283 247.309C71.8437 248.919 71.1555 250.575 70.5671 252.267L69.9863 252.09C69.9863 252.09 71.665 246.424 72.4583 243.973C72.679 243.164 72.9534 242.372 73.2799 241.6C73.5633 241.233 73.9174 240.927 74.3214 240.699C74.7253 240.472 75.1708 240.328 75.6315 240.276L79.7962 242.811C79.52 250.815 83.019 254.604 83.019 254.604C83.7982 255.153 84.4804 255.828 85.0376 256.602C85.8876 258.125 84.0177 257.749 79.6475 256.241Z" fill="#263238"/>
<path d="M74.875 242.606C74.8821 244.209 75.3121 245.783 76.1216 247.167C76.7591 248.173 75.9941 251.205 77.7578 252.869C78.4401 253.538 79.2641 254.045 80.1689 254.353C81.0737 254.661 82.0362 254.761 82.985 254.647C82.985 254.647 79.4435 250.857 79.7622 242.854C79.7622 242.854 74.96 241.395 74.875 242.606Z" fill="#FFB573"/>
<path d="M114.546 82.2333L114.794 82.5308L115.119 82.8991C115.353 83.147 115.58 83.409 115.828 83.6569C116.316 84.1669 116.848 84.6556 117.379 85.1656C118.458 86.1559 119.588 87.0898 120.764 87.9634C121.961 88.8488 123.215 89.6704 124.483 90.4778C125.191 90.8532 125.772 91.257 126.438 91.6253L127.975 92.4752C128.198 92.5737 128.45 92.5888 128.683 92.5177C129.179 92.369 132.026 89.55 132.933 88.5088C134.937 86.1997 139.024 82.6795 140.661 80.0942L141.496 83.1257C140.343 86.2845 138.809 89.291 136.928 92.0786C135.909 93.5812 134.694 94.9413 133.315 96.123C132.482 96.8218 131.542 97.3837 130.532 97.7875C128.914 98.4385 127.105 98.4258 125.496 97.752L124.865 97.4687L123.718 96.9517C122.939 96.6046 122.202 96.2009 121.452 95.8184C119.947 95.02 118.488 94.138 117.081 93.1764C115.667 92.2045 114.309 91.1521 113.016 90.0245C112.354 89.4458 111.723 88.8335 111.125 88.19C110.813 87.8784 110.508 87.5384 110.211 87.1984L109.765 86.6601C109.609 86.4547 109.488 86.306 109.262 86.0014L114.546 82.2333Z" fill="#FFB573"/>
<path d="M140.668 80.0942L147.262 76.0073L146.823 82.4316C146.823 82.4316 143.154 84.2802 141.284 83.0478L140.668 80.0942Z" fill="#FFB573"/>
<path d="M151.95 75.5824L152.404 80.9654L146.822 82.4245L147.261 76.0073L151.95 75.5824Z" fill="#FFB573"/>
<path d="M181.78 46.0525L143.471 84.7918L143.974 85.2898L182.283 46.5505L181.78 46.0525Z" fill="#263238"/>
<path d="M146.617 81.1921L147.651 81.3054C148.178 81.3576 148.709 81.3385 149.231 81.2487L149.712 80.8238C149.72 80.6319 149.664 80.4429 149.554 80.2855C149.444 80.1282 149.286 80.0112 149.103 79.9526L148.338 79.7046L144.974 77.856L144.018 79.1593V81.2204L144.336 81.4471C144.683 81.6865 145.105 81.7926 145.524 81.7458C145.943 81.6989 146.331 81.5023 146.617 81.1921V81.1921Z" fill="#FFB573"/>
<path d="M107.881 75.3699C110.538 74.8882 129.272 91.1366 129.272 91.1366L123.719 99.282C123.719 99.282 103.228 85.0169 103.887 81.5746C104.51 77.9835 104.007 76.0782 107.881 75.3699Z" fill="#263238"/>
<path opacity="0.2" d="M110.239 80.5971L110.041 89.0966C112.166 90.747 119.844 96.6329 119.844 96.6329L110.239 80.5971Z" fill="black"/>
<path d="M96.0098 246.062L101.471 246.324L103.666 230.246L97.3839 229.623L96.0098 246.062Z" fill="#FFB573"/>
<path opacity="0.2" d="M103.667 230.246L102.64 237.754L96.7539 237.18L97.3772 229.63L103.667 230.246Z" fill="black"/>
<path d="M74.875 242.606L79.8189 243.541L81.8092 228.971L75.5266 228.355L74.875 242.606Z" fill="#FFB573"/>
<path opacity="0.2" d="M81.8093 229.205L80.7398 237.039L75.1797 236.174L75.5197 228.589L81.8093 229.205Z" fill="black"/>
<path d="M107.428 112.378H102.746L83.7566 112.428C84.139 102.597 84.0965 94.6426 79.8963 75.3061C79.7918 74.8295 79.7951 74.3356 79.9061 73.8605C80.0171 73.3853 80.2329 72.941 80.5378 72.5601C80.8427 72.1792 81.2289 71.8712 81.6682 71.6588C82.1075 71.4464 82.5887 71.335 83.0766 71.3326C85.0386 71.3326 87.4964 71.4034 89.9896 71.6584C93.9331 71.9785 97.8498 72.5702 101.712 73.4291L102.158 73.5354C104.098 74.0364 106.008 74.6441 107.881 75.3557C109.092 75.7736 110.566 79.0813 111.89 82.8637C115.453 88.9763 111.097 94.1326 107.428 112.378Z" fill="white"/>
<path d="M108.306 113.611C108.306 113.611 121.594 152.05 121.275 170.53C121.091 181.119 120.297 200.852 117.103 214.727C114.496 226.06 103.872 233.285 103.872 233.285L95.3724 232.782C95.3724 232.782 90.7756 215.499 91.5759 208.622C93.1696 194.937 97.8869 184.646 97.3202 172.081C96.4136 151.491 90.3223 113.292 90.3223 113.292L108.306 113.611Z" fill="#407BFF"/>
<path opacity="0.2" d="M93.332 224.813C93.332 224.813 93.332 224.735 93.3887 224.735C100.975 224.735 109.68 207.028 109.262 175.714L105.791 149.451L93.332 224.813Z" fill="black"/>
<path d="M101.5 113.71C101.5 113.71 109.581 155.981 107.024 174.291C105.565 184.78 102.385 204.266 97.5333 217.66C93.581 228.582 82.1632 234.482 82.1632 234.482L73.7628 232.952C73.7628 232.952 71.2909 215.244 72.9129 208.508C76.1498 195.115 82.1207 185.468 83.0344 172.924C84.621 152.383 83.1973 113.71 83.1973 113.71H101.5Z" fill="#407BFF"/>
<path d="M93.6574 234.999L105.663 235.714L106.761 232.102L93.3457 230.862L93.6574 234.999Z" fill="#263238"/>
<path d="M73.0547 233.887L84.9116 235.884L86.3919 232.413L73.1822 229.743L73.0547 233.887Z" fill="#263238"/>
<path d="M83.6636 111.238L83.0119 113.54C82.9199 113.724 83.1324 113.901 83.4298 113.901L107.859 113.866C108.093 113.866 108.291 113.752 108.305 113.611L108.532 111.302C108.532 111.146 108.341 111.011 108.086 111.011L84.0815 111.047C84.0012 111.039 83.9203 111.053 83.847 111.087C83.7736 111.12 83.7104 111.172 83.6636 111.238V111.238Z" fill="#407BFF"/>
<g opacity="0.5">
<path d="M83.6636 111.238L83.0119 113.54C82.9199 113.724 83.1324 113.901 83.4298 113.901L107.859 113.866C108.093 113.866 108.291 113.752 108.305 113.611L108.532 111.302C108.532 111.146 108.341 111.011 108.086 111.011L84.0815 111.047C84.0012 111.039 83.9203 111.053 83.847 111.087C83.7736 111.12 83.7104 111.172 83.6636 111.238V111.238Z" fill="white"/>
</g>
<path d="M88.3326 114.114H87.6243C87.4968 114.114 87.3835 114.043 87.3977 113.958L87.7164 110.962C87.7164 110.877 87.8439 110.806 87.9856 110.806H88.6939C88.8284 110.806 88.9418 110.877 88.9276 110.969L88.6089 113.958C88.5876 114.036 88.4672 114.114 88.3326 114.114Z" fill="#407BFF"/>
<path d="M105.968 114.114H105.259C105.125 114.114 105.019 114.043 105.026 113.958L105.344 110.969C105.344 110.877 105.479 110.806 105.614 110.806H106.322C106.456 110.806 106.563 110.877 106.556 110.962L106.237 113.951C106.244 114.036 106.109 114.114 105.968 114.114Z" fill="#407BFF"/>
<path d="M97.8933 114.092H97.185C97.0504 114.092 96.9441 114.022 96.9583 113.937L97.277 110.948C97.277 110.856 97.4045 110.785 97.5391 110.792H98.2474C98.382 110.792 98.4953 110.863 98.4811 110.948L98.1624 113.937C98.1482 114.036 98.0349 114.1 97.8933 114.092Z" fill="#407BFF"/>
<path d="M91.0949 58.7886C91.8457 62.6418 92.5824 69.6114 89.9688 71.7151C89.9688 71.7151 91.01 75.6674 98.015 76.7227C105.75 77.8914 101.691 73.4858 101.691 73.4858C97.4838 71.8142 97.5829 68.7756 98.3125 65.9708L91.0949 58.7886Z" fill="#FFB573"/>
<path opacity="0.2" d="M94.0344 61.7139L98.2842 65.9637C98.1067 66.62 97.9882 67.2908 97.93 67.9682C96.3222 67.5007 93.7298 65.7229 93.5527 64.0229C93.5554 63.2286 93.7193 62.4431 94.0344 61.7139V61.7139Z" fill="black"/>
<path d="M86.3705 53.9014C88.2616 59.9007 88.9345 62.4789 92.8159 64.8375C98.6169 68.379 105.565 64.7454 105.502 58.3141C105.445 52.5202 102.364 43.6948 95.7766 42.7316C94.3308 42.5162 92.8539 42.6742 91.4863 43.1905C90.1188 43.7069 88.906 44.5645 87.9633 45.6818C87.0207 46.799 86.3795 48.1388 86.1007 49.5738C85.8219 51.0088 85.9147 52.4912 86.3705 53.8802V53.9014Z" fill="#FFB573"/>
<path d="M100.664 52.9664C101.335 54.0196 102.15 54.9733 103.086 55.7996C102.868 56.035 102.601 56.2202 102.304 56.3425C102.006 56.4647 101.686 56.5212 101.365 56.5079L100.664 52.9664Z" fill="#ED893E"/>
<path d="M99.9906 59.7094C100.23 59.6854 100.467 59.6404 100.699 59.5748C100.717 59.5707 100.734 59.5629 100.749 59.5521C100.765 59.5413 100.777 59.5276 100.787 59.5119C100.797 59.4961 100.804 59.4785 100.807 59.4601C100.81 59.4418 100.809 59.423 100.805 59.4048V59.4048C100.795 59.3673 100.771 59.3348 100.739 59.3138C100.706 59.2928 100.666 59.2849 100.628 59.2915C100.017 59.4664 99.3738 59.4934 98.7506 59.3702C98.1273 59.247 97.5424 58.9773 97.0441 58.5832C97.0152 58.5563 96.9773 58.5414 96.9379 58.5414C96.8984 58.5414 96.8605 58.5563 96.8316 58.5832C96.8042 58.6132 96.7891 58.6524 96.7891 58.693C96.7891 58.7336 96.8042 58.7728 96.8316 58.8028C97.2716 59.1561 97.7776 59.4182 98.3199 59.5738C98.8623 59.7295 99.4302 59.7756 99.9906 59.7094V59.7094Z" fill="#263238"/>
<path d="M83.1054 44.7998C82.3247 45.3062 81.6767 45.9924 81.2158 46.8008C80.7549 47.6092 80.4945 48.5164 80.4564 49.4462C80.4236 49.7991 80.4796 50.1546 80.6193 50.4803C80.6891 50.6428 80.8005 50.784 80.9422 50.8897C81.084 50.9954 81.2511 51.0618 81.4267 51.0824C81.9651 51.0824 82.3688 50.6078 82.6592 50.1545L84.0333 48.0296C84.599 47.3367 85.075 46.5752 85.4499 45.7631C85.9103 44.3677 83.9483 44.2685 83.1054 44.7998Z" fill="#407BFF"/>
<path d="M84.9956 43.3548C81.2274 47.6967 79.5488 59.7307 90.5628 63.088C92.4044 61.6714 89.4295 58.9799 88.1687 55.6225C87.3471 53.4197 91.5402 49.3187 93.1835 47.64C94.8267 45.9614 96.3212 43.5248 98.6374 43.9144C99.2241 44.107 99.8543 44.1242 100.451 43.964C102.285 43.1353 101.393 42.0374 100.451 41.2654C98.9922 40.1967 97.2608 39.5631 95.4571 39.438C93.5278 39.2156 91.5732 39.4548 89.7543 40.1357C87.9355 40.8167 86.3045 41.92 84.9956 43.3548V43.3548Z" fill="#263238"/>
<path d="M87.3612 55.9554L87.0566 55.6296C87.0566 55.2755 87.0566 55.2755 93.2047 53.3418L93.4171 54.0501C91.2923 54.7088 87.857 55.7996 87.5879 55.9342L87.4391 55.6225L87.3612 55.9554Z" fill="#407BFF"/>
<path d="M85.7032 58.9374C86.3968 59.9364 87.4549 60.6232 88.6497 60.8498C90.2363 61.1331 90.8525 59.674 90.3001 58.2574C89.7901 56.9896 88.3452 55.3038 86.8152 55.6721C86.5529 55.7391 86.3063 55.857 86.0896 56.0193C85.8729 56.1815 85.6902 56.3849 85.5521 56.6177C85.414 56.8505 85.3231 57.1083 85.2846 57.3763C85.2461 57.6443 85.2608 57.9172 85.3278 58.1795C85.4021 58.4543 85.5297 58.7118 85.7032 58.9374Z" fill="#FFB573"/>
<path d="M96.4489 42.2711C97.3059 44.4456 99.7779 44.1623 101.612 46.443C102.732 47.8596 104.941 43.4894 101.938 41.7612C98.935 40.0329 95.1102 38.8571 96.4489 42.2711Z" fill="#263238"/>
<path d="M93.849 51.4719C93.9106 51.4825 93.974 51.4714 94.0282 51.4404C94.0825 51.4094 94.1243 51.3604 94.1464 51.3019C94.7343 50.0057 96.4767 49.687 96.4909 49.6799C96.5296 49.6731 96.5665 49.6587 96.5996 49.6375C96.6327 49.6163 96.6612 49.5888 96.6836 49.5566C96.706 49.5243 96.7218 49.4879 96.73 49.4495C96.7383 49.4111 96.7389 49.3715 96.7317 49.3329C96.7146 49.2551 96.6684 49.1868 96.6026 49.142C96.5367 49.0972 96.4562 49.0793 96.3776 49.092C96.2926 49.092 94.3023 49.5099 93.601 51.0682C93.5843 51.1035 93.5746 51.1418 93.5726 51.1809C93.5707 51.22 93.5764 51.2591 93.5896 51.2959C93.6028 51.3327 93.623 51.3666 93.6493 51.3956C93.6756 51.4246 93.7073 51.4481 93.7427 51.4648H93.849V51.4719Z" fill="#263238"/>
<path d="M103.056 48.8725C103.122 48.8771 103.187 48.8598 103.242 48.8233C103.297 48.7868 103.338 48.7332 103.359 48.6709C103.38 48.6085 103.38 48.541 103.358 48.4788C103.337 48.4166 103.295 48.3632 103.24 48.3271C102.848 48.0586 102.398 47.8872 101.926 47.8268C101.454 47.7665 100.975 47.819 100.528 47.98C100.454 48.0113 100.395 48.0705 100.365 48.1448C100.334 48.2191 100.334 48.3024 100.365 48.3767C100.379 48.4139 100.401 48.4478 100.43 48.4761C100.458 48.5044 100.492 48.5266 100.529 48.5412C100.566 48.5559 100.606 48.5626 100.646 48.5611C100.686 48.5596 100.725 48.5499 100.761 48.5325V48.5325C101.114 48.4111 101.49 48.3748 101.86 48.4265C102.229 48.4782 102.581 48.6164 102.886 48.83C102.939 48.8564 102.997 48.8709 103.056 48.8725V48.8725Z" fill="#263238"/>
<path d="M132.176 87.6447L128.032 90.0033L123.719 99.282C123.719 99.282 127.884 101.931 131.163 99.7849C134.442 97.6387 132.176 87.6447 132.176 87.6447Z" fill="#263238"/>
<path d="M102.767 51.2736C103.107 51.2099 103.476 51.5923 103.554 52.1165C103.632 52.6406 103.44 53.1223 103.1 53.1789C102.76 53.2356 102.392 52.8602 102.314 52.3361C102.236 51.8119 102.428 51.3374 102.767 51.2736Z" fill="#263238"/>
<path d="M103.814 50.7566L102.617 51.3444C103.34 51.8544 103.814 50.7566 103.814 50.7566Z" fill="#263238"/>
<path d="M96.8378 52.4848C97.1778 52.421 97.5461 52.8035 97.624 53.3277C97.7019 53.8518 97.5107 54.3334 97.1707 54.3901C96.8307 54.4468 96.4624 54.0714 96.3845 53.5472C96.3066 53.0231 96.4978 52.5485 96.8378 52.4848Z" fill="#263238"/>
<path d="M97.8865 51.9677L96.6895 52.5556C97.4119 53.0656 97.8865 51.9677 97.8865 51.9677Z" fill="#263238"/>
<path d="M79.2658 42.0728C79.3225 40.7058 79.9741 39.0626 79.1454 37.993C80.6258 39.1901 80.3283 39.8771 80.4558 40.2242C80.3731 39.0576 80.1028 37.912 79.6554 36.8314C80.6084 37.5942 81.2362 38.6904 81.412 39.8984C81.2669 38.6626 80.9867 37.4465 80.5762 36.2719C81.7814 37.3874 82.5096 38.925 82.609 40.5642C82.609 39.8134 82.609 39.0697 82.5594 38.3189C82.8581 39.0504 83.0743 39.813 83.204 40.5925C83.3053 41.4046 83.2718 42.2279 83.1048 43.029C83.0149 43.8269 82.6218 44.5597 82.0069 45.076C81.6949 45.3231 81.3175 45.4736 80.921 45.5088C80.5246 45.544 80.1265 45.4625 79.7758 45.2743C78.0759 44.2261 79.2162 43.3053 79.2658 42.0728Z" fill="#263238"/>
<path d="M97.7948 55.658C97.6981 55.6646 97.601 55.6646 97.5044 55.658L94.1895 55.0276C93.8863 54.9716 93.6071 54.8254 93.3884 54.608C93.1697 54.3906 93.0219 54.1122 92.9642 53.8093C92.8865 53.4105 92.9684 52.9972 93.1922 52.6581C93.416 52.319 93.764 52.0813 94.1612 51.9961L98.411 51.0965C98.7818 51.0178 99.1687 51.0782 99.4978 51.2663C99.827 51.4544 100.075 51.757 100.196 52.1165L100.26 52.3006C100.339 52.5384 100.358 52.792 100.316 53.039C100.274 53.286 100.172 53.5189 100.019 53.7172L98.9918 55.063C98.8503 55.2463 98.669 55.3951 98.4617 55.4981C98.2543 55.6012 98.0263 55.6558 97.7948 55.658V55.658ZM98.758 51.7482C98.7016 51.7413 98.6445 51.7413 98.5881 51.7482L94.3383 52.6477C94.1238 52.6938 93.9358 52.8217 93.8141 53.0042C93.6924 53.1867 93.6467 53.4095 93.6866 53.6252C93.7169 53.7906 93.7969 53.9429 93.9158 54.0618C94.0347 54.1807 94.187 54.2606 94.3524 54.2909L97.6673 54.9213C97.8203 54.95 97.9783 54.9354 98.1235 54.8791C98.2687 54.8227 98.3952 54.727 98.4889 54.6026L99.5159 53.2568C99.5997 53.1489 99.6552 53.0218 99.6775 52.887C99.6997 52.7522 99.688 52.6139 99.6434 52.4848L99.5797 52.3006C99.5204 52.1324 99.4085 51.9877 99.2604 51.8882C99.1124 51.7887 98.9362 51.7396 98.758 51.7482V51.7482Z" fill="#407BFF"/>
<path d="M103.524 53.951C103.368 53.9488 103.213 53.9249 103.064 53.8801L101.449 53.3773C101.207 53.3011 100.987 53.1672 100.808 52.987C100.629 52.8069 100.497 52.5859 100.422 52.3431L100.372 52.159C100.263 51.7965 100.291 51.4065 100.45 51.0631C100.609 50.7197 100.889 50.4467 101.237 50.2962L104.537 49.0425C104.91 48.885 105.329 48.8799 105.705 49.0282C106.081 49.1766 106.384 49.4665 106.549 49.8358V49.8358C106.678 50.1157 106.719 50.4285 106.666 50.7322C106.612 51.0359 106.468 51.3162 106.251 51.5357L104.651 53.4552C104.507 53.6106 104.333 53.7348 104.139 53.8201C103.945 53.9054 103.736 53.9499 103.524 53.951V53.951ZM105.139 49.6304C105.025 49.6303 104.912 49.652 104.806 49.6941L101.506 50.9549C101.321 51.0375 101.173 51.1842 101.088 51.3678C101.004 51.5515 100.988 51.7596 101.045 51.9536L101.102 52.1377C101.142 52.2689 101.213 52.3884 101.309 52.4859C101.405 52.5834 101.524 52.6559 101.655 52.6973L103.269 53.2002C103.418 53.2492 103.578 53.2545 103.73 53.2156C103.882 53.1767 104.019 53.0952 104.126 52.9806L105.727 51.0682C105.849 50.9478 105.931 50.7931 105.963 50.6248C105.994 50.4565 105.974 50.2826 105.904 50.1262C105.838 49.9783 105.731 49.8528 105.595 49.7648C105.46 49.6768 105.301 49.6301 105.139 49.6304V49.6304Z" fill="#407BFF"/>
<path d="M82.0076 121.409C82.1193 122.909 82.4908 124.378 83.1055 125.751C84.4229 128.28 87.3552 129.661 90.1884 129.916C93.0216 130.171 95.8548 129.47 98.6242 128.775C98.2984 114.765 97.9726 100.72 96.1664 86.823C95.4582 81.355 92.9366 72.7279 91.2792 69.661C91.2792 69.661 79.1248 70.7376 76.1996 73.5496C73.0618 76.5669 76.9079 81.78 77.3683 85.5906C78.9076 97.5325 80.4541 109.472 82.0076 121.409Z" fill="#263238"/>
<path d="M110.94 110.785L112.18 122.358C112.326 123.758 111.932 125.161 111.077 126.279C110.222 127.397 108.972 128.146 107.583 128.372L104.041 128.938C103.666 118.633 103.439 100.606 103.439 94.1326C103.439 85.0239 101.484 77.8418 100.195 72.7279C103.121 73.4362 105.862 74.7111 107.866 75.3699C109.077 75.7878 110.968 79.0247 112.293 82.807C115.898 88.9054 111.202 101.683 110.94 110.785Z" fill="#263238"/>
<path d="M62.2382 100.196L72.7351 100.436L72.3881 99.6574C72.1068 99.0291 72.0119 98.3332 72.1149 97.6526C72.2179 96.972 72.5143 96.3353 72.9689 95.8184C76.7937 91.4836 86.4265 80.3209 86.3628 78.1676C86.2069 75.1078 82.9842 73.0325 79.3365 73.1033C76.6449 73.16 69.1582 84.9248 64.5968 90.7612C60.5666 95.9317 62.2382 100.196 62.2382 100.196Z" fill="#263238"/>
<path d="M69.9295 100.861C75.1664 105.032 79.8568 109.847 83.89 115.19L86.0574 117.627L82.1618 120.177C82.1618 120.177 69.8374 111.798 66.9617 108.617C65.2092 106.651 63.9449 104.3 63.2715 101.754L69.9295 100.861Z" fill="#FFB573"/>
<path d="M75.5754 104.644L72.6359 100.472L62.0115 99.2749C62.0115 99.2749 59.9857 103.957 64.448 106.677C67.7912 108.716 75.5754 104.644 75.5754 104.644Z" fill="#263238"/>
<path d="M80.7454 114.489L88.1542 116.784L83.0119 120.658C83.0119 120.658 79.2155 119.1 78.918 116.883L80.7454 114.489Z" fill="#FFB573"/>
<path d="M91.5337 120.056L87.7656 123.924L83.0059 120.658L88.141 116.784L91.5337 120.056Z" fill="#FFB573"/>
</svg>
